<?xml version="1.0" encoding="UTF-8"?>
<svg version="1.1" xmlns="http://www.w3.org/2000/svg" width="559" height="447">
<path d="M0 0 C3.99061673 2.88317286 7.50572033 5.73210302 10.6875 9.5 C10.6875 10.82 10.6875 12.14 10.6875 13.5 C9.4914917 13.70681396 8.2954834 13.91362793 7.06323242 14.12670898 C2.62923146 14.89406656 -1.80423633 15.66446673 -6.23754883 16.43579102 C-8.1570008 16.76930533 -10.07659669 17.10199248 -11.99633789 17.43383789 C-14.7544512 17.91075126 -17.51203461 18.3906293 -20.26953125 18.87109375 C-21.12899857 19.01904892 -21.98846588 19.16700409 -22.87397766 19.31944275 C-23.67458115 19.45951248 -24.47518463 19.59958221 -25.30004883 19.74389648 C-26.35594963 19.92709694 -26.35594963 19.92709694 -27.43318176 20.11399841 C-29.52541948 20.50492231 -29.52541948 20.50492231 -32.3125 21.5 C-32.20636164 23.95224694 -32.20636164 23.95224694 -31.3125 26.5 C-28.9694191 27.62085312 -28.9694191 27.62085312 -26.3125 28.5 C-23.9375 30.1875 -23.9375 30.1875 -22.3125 32.5 C-22.0890451 38.1981 -24.44593043 41.51255517 -27.61328125 45.9453125 C-30.66462959 50.5328569 -32.9435105 55.53520286 -35.3125 60.5 C-36.3025 60.5 -37.2925 60.5 -38.3125 60.5 C-39.75180464 57.95934066 -41.18898839 55.41751978 -42.625 52.875 C-43.02912109 52.16214844 -43.43324219 51.44929688 -43.84960938 50.71484375 C-44.64496067 49.30519674 -45.43428521 47.89213084 -46.21728516 46.47558594 C-47.18167874 44.73597985 -48.17279135 43.01124318 -49.16796875 41.2890625 C-50.52282165 37.98747557 -50.64173882 36.79713537 -49.3125 33.5 C-47.0625 30.67578125 -47.0625 30.67578125 -44.3125 27.8125 C-40.91680215 24.43780615 -40.91680215 24.43780615 -38.3125 20.5 C-37.6525 20.5 -36.9925 20.5 -36.3125 20.5 C-36.04695313 19.92765625 -35.78140625 19.3553125 -35.5078125 18.765625 C-33.53522724 15.02673791 -30.88140726 11.8507486 -28.3125 8.5 C-33.2625 9.82 -38.2125 11.14 -43.3125 12.5 C-40.6725 12.5 -38.0325 12.5 -35.3125 12.5 C-36.09595715 13.67219543 -36.88952836 14.83763668 -37.6875 16 C-38.12835938 16.6496875 -38.56921875 17.299375 -39.0234375 17.96875 C-39.44882812 18.4740625 -39.87421875 18.979375 -40.3125 19.5 C-40.9725 19.5 -41.6325 19.5 -42.3125 19.5 C-42.57289063 20.08910156 -42.83328125 20.67820313 -43.1015625 21.28515625 C-44.38672474 23.63575944 -45.74736817 25.10327056 -47.6875 26.9375 C-50.47395273 29.63669429 -52.96483381 32.40108063 -55.3125 35.5 C-53.84560766 39.55640638 -51.86919056 42.98615093 -49.5625 46.625 C-46.39361329 51.67557121 -43.43839639 56.79630937 -40.63671875 62.0625 C-39.31770681 64.56390841 -39.31770681 64.56390841 -37.63671875 67.09375 C-35.72467086 70.56814971 -36.36801139 72.72204554 -37.3125 76.5 C-38.875 79.4375 -38.875 79.4375 -40.3125 81.5 C-42.5625 81.5 -42.5625 81.5 -45.3125 80.5 C-47.0625 77.375 -47.0625 77.375 -48.03125 75.1875 C-49.65579113 71.77992593 -51.59712949 68.59244529 -53.5625 65.375 C-57.32176316 59.18633929 -60.94157387 52.93378676 -64.48828125 46.62109375 C-66.300102 43.43388368 -66.300102 43.43388368 -68.52734375 40.27734375 C-70.43171666 37.31452288 -70.71712728 35.93933187 -70.3125 32.5 C-69.6525 32.5 -68.9925 32.5 -68.3125 32.5 C-68.3125 31.84 -68.3125 31.18 -68.3125 30.5 C-64.85096154 27.5 -64.85096154 27.5 -62.3125 27.5 C-62.3125 26.51 -62.3125 25.52 -62.3125 24.5 C-64.12041016 24.74556641 -64.12041016 24.74556641 -65.96484375 24.99609375 C-72.26388624 25.69598736 -78.54505417 25.60803918 -84.875 25.5625 C-86.07447266 25.55798828 -87.27394531 25.55347656 -88.50976562 25.54882812 C-91.44406359 25.53713769 -94.37825449 25.52075138 -97.3125 25.5 C-96.14043907 28.55994211 -94.89449687 31.40423281 -93.2109375 34.21484375 C-92.80721924 34.89393799 -92.40350098 35.57303223 -91.98754883 36.27270508 C-91.55853271 36.9870874 -91.1295166 37.70146973 -90.6875 38.4375 C-89.78182673 39.9605064 -88.87688883 41.4839503 -87.97265625 43.0078125 C-87.52293457 43.76481445 -87.07321289 44.52181641 -86.60986328 45.30175781 C-84.74951458 48.45391809 -82.9328416 51.63001573 -81.125 54.8125 C-78.65114656 59.16169395 -76.15427121 63.4952957 -73.625 67.8125 C-71.60076985 71.26883856 -69.61432873 74.7384897 -67.6875 78.25 C-65.76308687 81.75065941 -63.69852529 85.13024963 -61.5234375 88.48046875 C-60.3125 90.5 -60.3125 90.5 -59.04296875 93.109375 C-56.20652686 98.66700833 -52.8651529 103.92563325 -49.60742188 109.24414062 C-49.08599609 110.10330078 -48.56457031 110.96246094 -48.02734375 111.84765625 C-47.55417725 112.62117432 -47.08101074 113.39469238 -46.59350586 114.19165039 C-45.27463171 116.56823798 -44.2678875 118.95801191 -43.3125 121.5 C-40.45265453 118.98367951 -38.89781178 116.16114447 -37.125 112.8125 C-36.59519531 111.81863281 -36.06539063 110.82476562 -35.51953125 109.80078125 C-35.12121094 109.04152344 -34.72289062 108.28226562 -34.3125 107.5 C-33.6525 107.5 -32.9925 107.5 -32.3125 107.5 C-32.2000293 106.7680542 -32.08755859 106.0361084 -31.97167969 105.28198242 C-31.28685812 102.39178177 -30.32859057 100.4990313 -28.765625 97.98828125 C-28.25 97.14716797 -27.734375 96.30605469 -27.203125 95.43945312 C-26.66171875 94.57255859 -26.1203125 93.70566406 -25.5625 92.8125 C-22.43153303 87.76688533 -19.38348792 82.76811892 -16.796875 77.41796875 C-14.7836822 73.27944674 -12.4239397 69.57387893 -9.82080078 65.78613281 C-6.65674769 60.99037477 -4.06999323 55.85068745 -1.36914062 50.78515625 C1.35756427 45.73512813 4.29494191 41.12673743 7.6875 36.5 C8.52314196 35.10881954 9.32733932 33.69679623 10.0625 32.25 C10.40023437 31.60546875 10.73796875 30.9609375 11.0859375 30.296875 C11.95468829 28.29982735 11.95468829 28.29982735 10.6875 25.5 C10.08808594 25.51160156 9.48867188 25.52320313 8.87109375 25.53515625 C-2.20299637 25.64542457 -13.25414006 25.02846255 -24.3125 24.5 C-24.3125 23.84 -24.3125 23.18 -24.3125 22.5 C-18.56655271 20.99618427 -12.83757111 19.80804208 -6.984375 18.80859375 C-6.11411682 18.658423 -5.24385864 18.50825226 -4.347229 18.35353088 C-2.51544817 18.03855193 -0.68339103 17.72517599 1.14892578 17.41333008 C3.91675705 16.94103949 6.68298442 16.46005989 9.44921875 15.97851562 C18.51090797 14.41918308 27.48952862 12.97506266 36.6875 12.5 C37.0175 13.16 37.3475 13.82 37.6875 14.5 C30.08037947 25.99959519 22.17728859 37.21513422 13.97363281 48.29638672 C9.07004962 54.93769862 4.32318532 61.6691092 -0.3125 68.5 C0.0175 68.5 0.3475 68.5 0.6875 68.5 C1.66229828 67.36431269 2.58928648 66.18769451 3.5 65 C4.11875 64.19691406 4.7375 63.39382812 5.375 62.56640625 C7.18327072 60.16861484 8.97176507 57.75979429 10.75 55.33984375 C11.55280396 54.25316406 11.55280396 54.25316406 12.37182617 53.14453125 C13.45321984 51.67867449 14.5289628 50.20863143 15.59887695 48.734375 C16.09863037 48.05761719 16.59838379 47.38085938 17.11328125 46.68359375 C17.56098877 46.07056396 18.00869629 45.45753418 18.4699707 44.82592773 C18.87175537 44.38837158 19.27354004 43.95081543 19.6875 43.5 C20.3475 43.5 21.0075 43.5 21.6875 43.5 C22.3475 42.18 23.0075 40.86 23.6875 39.5 C24.6775 39.5 25.6675 39.5 26.6875 39.5 C31.56320942 59.90252215 29.33940959 78.15999898 18.9375 96.6875 C8.18575544 113.61052652 -8.22964697 125.00956555 -27.69775391 129.42138672 C-38.96245021 131.63876662 -51.23889558 131.6985914 -62.3125 128.5 C-63.35470703 128.22542969 -63.35470703 128.22542969 -64.41796875 127.9453125 C-74.09337068 125.09027587 -83.91332341 120.39392174 -91.3125 113.5 C-91.3125 112.84 -91.3125 112.18 -91.3125 111.5 C-91.90546875 111.23703125 -92.4984375 110.9740625 -93.109375 110.703125 C-103.47642171 105.04168814 -110.65908713 88.91429857 -114.04296875 78.18359375 C-115.37840214 71.62056642 -115.52070876 65.11128314 -115.5625 58.4375 C-115.57176514 57.51573975 -115.58103027 56.59397949 -115.59057617 55.64428711 C-115.49914243 35.50914303 -106.46483718 18.52731653 -92.3125 4.5 C-65.11488369 -18.69142078 -29.29598863 -19.74863519 0 0 Z M-4.3125 71.5 C-3.9825 72.49 -3.6525 73.48 -3.3125 74.5 C-2.9825 73.51 -2.6525 72.52 -2.3125 71.5 C-2.9725 71.5 -3.6325 71.5 -4.3125 71.5 Z M-6.3125 75.5 C-5.3125 77.5 -5.3125 77.5 -5.3125 77.5 Z M-7.3125 77.5 C-7.6425 78.16 -7.9725 78.82 -8.3125 79.5 C-7.6525 79.5 -6.9925 79.5 -6.3125 79.5 C-6.6425 78.84 -6.9725 78.18 -7.3125 77.5 Z " fill="#072959" transform="translate(318.3125,121.5)"/>
<path d="M0 0 C0.495 0.99 0.495 0.99 1 2 C-6.60860925 13.50184567 -14.51442347 24.71856077 -22.71826172 35.80297852 C-28.33402165 43.41038299 -33.7546656 51.13199841 -39 59 C-39.66 59 -40.32 59 -41 59 C-41.103125 59.53625 -41.20625 60.0725 -41.3125 60.625 C-42.18341806 63.63362604 -43.55479198 66.2252006 -45 69 C-45.391875 69.78375 -45.78375 70.5675 -46.1875 71.375 C-46.455625 71.91125 -46.72375 72.4475 -47 73 C-47.66 73 -48.32 73 -49 73 C-49.12375 73.639375 -49.2475 74.27875 -49.375 74.9375 C-49.58125 75.618125 -49.7875 76.29875 -50 77 C-50.99 77.495 -50.99 77.495 -52 78 C-52.309375 79.11375 -52.61875 80.2275 -52.9375 81.375 C-53.99567106 84.98523069 -54.47748802 85.58259269 -57 88 C-57.33 89.010625 -57.66 90.02125 -58 91.0625 C-59 94 -59 94 -62 96 C-62.6875 94.1875 -62.6875 94.1875 -63 92 C-62 91 -61 90 -60 89 C-60.22757731 86.83700789 -60.22757731 86.83700789 -61 85 C-61.99 85 -62.98 85 -64 85 C-62.59113139 81.20157972 -60.82880444 77.84903805 -58.75 74.375 C-55.90029232 69.56242313 -53.17927593 64.70419968 -50.5546875 59.765625 C-49.30290795 57.53884127 -47.99963952 55.39388803 -46.6328125 53.23828125 C-43.43300346 48.16325751 -40.59994971 42.89990689 -37.75 37.62304688 C-35.11746938 32.81456516 -32.22678186 28.43008011 -29 24 C-28.16435804 22.60881954 -27.36016068 21.19679623 -26.625 19.75 C-26.28726563 19.10546875 -25.94953125 18.4609375 -25.6015625 17.796875 C-24.73281171 15.79982735 -24.73281171 15.79982735 -26 13 C-26.59941406 13.01160156 -27.19882812 13.02320313 -27.81640625 13.03515625 C-38.89049637 13.14542457 -49.94164006 12.52846255 -61 12 C-61 11.34 -61 10.68 -61 10 C-55.19634147 8.47618083 -49.41218721 7.2997734 -43.49609375 6.30859375 C-42.6139772 6.158423 -41.73186066 6.00825226 -40.82301331 5.85353088 C-38.97022601 5.53868464 -37.11718887 5.22530548 -35.26391602 4.91333008 C-32.44167772 4.43820332 -29.62019886 3.95876461 -26.79882812 3.47851562 C-24.98962584 3.17162429 -23.18038241 2.86497544 -21.37109375 2.55859375 C-20.53549423 2.41691269 -19.69989471 2.27523163 -18.838974 2.1292572 C-5.23470429 -0.1586274 -5.23470429 -0.1586274 0 0 Z " fill="#092A55" transform="translate(355,134)"/>
<path d="M0 0 C2.97 0 5.94 0 9 0 C10.42500059 3.99000166 11.40075776 7.80530429 12 12 C12.28875 10.948125 12.5775 9.89625 12.875 8.8125 C13.77225193 5.77181289 14.76423419 2.91287656 16 0 C18.97 0 21.94 0 25 0 C25.99 3.3 26.98 6.6 28 10 C29.13357275 6.67485327 30.1469752 3.4120992 31 0 C33.97 0 36.94 0 40 0 C39.49894103 9.1860811 37.13733532 19.72532937 33 28 C30.03 28 27.06 28 24 28 C22.68 24.04 21.36 20.08 20 16 C19.525625 17.794375 19.05125 19.58875 18.5625 21.4375 C17.125 26.875 17.125 26.875 16 28 C14.48071962 28.07179964 12.95832518 28.08392007 11.4375 28.0625 C10.61121094 28.05347656 9.78492188 28.04445313 8.93359375 28.03515625 C7.97646484 28.01775391 7.97646484 28.01775391 7 28 C1.62870159 9.17995444 1.62870159 9.17995444 0 0 Z " fill="#1E3D67" transform="translate(286,275)"/>
<path d="M0 0 C4.34245061 3.02083521 7.24415039 6.8159949 8.2890625 12.08984375 C8.48716351 16.78123591 7.68572876 20.27991782 4.875 24 C1.05122154 26.81118527 -2.76963243 28.99629076 -7.60546875 29.00390625 C-12.30150037 28.11504264 -15.75055529 26.47670061 -19.125 23 C-21.82852839 18.5291474 -21.79676379 14.08621159 -21.125 9 C-20.06479901 6.45951838 -18.99556819 5.09063503 -17.125 3 C-16.465 3 -15.805 3 -15.125 3 C-15.125 2.34 -15.125 1.68 -15.125 1 C-9.92546622 -1.52098607 -5.50923748 -1.76295599 0 0 Z M-12.125 9 C-13.52435013 11.79870027 -13.37765405 13.90498792 -13.125 17 C-11.56607407 19.37941326 -10.34150072 19.91673049 -7.6875 20.9375 C-5.01397187 21.25051858 -5.01397187 21.25051858 -2.8125 19.4375 C-0.68090136 16.35852418 -0.65562918 14.67673806 -1.125 11 C-2.78848833 7.8464189 -2.78848833 7.8464189 -5.5 7.1875 C-8.45203618 6.97664027 -9.69934783 7.35402174 -12.125 9 Z " fill="#12305A" transform="translate(206.125,275)"/>
<path d="M0 0 C3.0625 2.3125 3.0625 2.3125 5 5 C5 6.32 5 7.64 5 9 C0.17186559 9.94669302 -2.53759295 10.01925846 -7 8 C-5.18408626 8.78380461 -3.37234593 9.57728447 -1.5625 10.375 C-0.04849609 11.03628906 -0.04849609 11.03628906 1.49609375 11.7109375 C4 13 4 13 5 15 C5.46990794 18.08116851 5.54604898 20.92574425 5 24 C1.61388693 27.75217934 -1.6987772 28.31608788 -6.5625 28.625 C-9.53221552 28.52385165 -11.35557034 28.44114391 -13.8203125 26.75390625 C-16.09081685 24.15255698 -17 22.4704141 -17 19 C-13.6875 18.3125 -13.6875 18.3125 -10 18 C-8.1875 19.4375 -8.1875 19.4375 -7 21 C-6.34 21 -5.68 21 -5 21 C-5 20.34 -5 19.68 -5 19 C-5.69867188 18.68546875 -6.39734375 18.3709375 -7.1171875 18.046875 C-8.02726562 17.61890625 -8.93734375 17.1909375 -9.875 16.75 C-10.77992188 16.33234375 -11.68484375 15.9146875 -12.6171875 15.484375 C-15.25053073 13.84393168 -16.04464961 12.91604043 -17 10 C-16.78181818 3.78181818 -16.78181818 3.78181818 -14.125 1.125 C-9.29130247 -1.43401634 -5.2080592 -1.34077881 0 0 Z " fill="#133059" transform="translate(376,275)"/>
<path d="M0 0 C2.64 0 5.28 0 8 0 C10 5 12 10 14 15 C15.91539047 10.03739743 17.60961435 5.13373162 19 0 C21.97 0 24.94 0 28 0 C27.4374358 6.43823468 25.30475962 11.9559787 22.9375 17.9375 C22.56044922 18.90751953 22.18339844 19.87753906 21.79492188 20.87695312 C20.86990662 23.25389107 19.93585869 25.62731044 19 28 C15.7 28 12.4 28 9 28 C0 7.52868852 0 7.52868852 0 0 Z " fill="#183A5B" transform="translate(146,275)"/>
<path d="M0 0 C1.13115234 0.07831055 1.13115234 0.07831055 2.28515625 0.15820312 C4.1487937 0.28795004 6.01194996 0.42457488 7.875 0.5625 C7.875 2.8725 7.875 5.1825 7.875 7.5625 C4.91835481 9.0408226 2.13270263 8.62282783 -1.125 8.5625 C-1.125 8.8925 -1.125 9.2225 -1.125 9.5625 C1.185 9.8925 3.495 10.2225 5.875 10.5625 C5.875 12.8725 5.875 15.1825 5.875 17.5625 C3.565 17.8925 1.255 18.2225 -1.125 18.5625 C-1.125 19.5525 -1.125 20.5425 -1.125 21.5625 C0.174375 21.541875 1.47375 21.52125 2.8125 21.5 C4.16665633 21.47850546 5.52256083 21.49101801 6.875 21.5625 C7.875 22.5625 7.875 22.5625 7.875 28.5625 C1.935 28.5625 -4.005 28.5625 -10.125 28.5625 C-10.125 19.3225 -10.125 10.0825 -10.125 0.5625 C-6.91158631 -1.04420684 -3.49541032 -0.26260855 0 0 Z " fill="#103257" transform="translate(404.125,274.4375)"/>
<path d="M0 0 C0.33 0 0.66 0 1 0 C1.103125 1.258125 1.20625 2.51625 1.3125 3.8125 C1.64858808 6.60499657 1.80025876 7.74433121 3.5625 10 C4.036875 10.33 4.51125 10.66 5 11 C4.01 12.485 4.01 12.485 3 14 C2.34 14 1.68 14 1 14 C0.896875 14.53625 0.79375 15.0725 0.6875 15.625 C-0.18341806 18.63362604 -1.55479198 21.2252006 -3 24 C-3.391875 24.78375 -3.78375 25.5675 -4.1875 26.375 C-4.455625 26.91125 -4.72375 27.4475 -5 28 C-5.66 28 -6.32 28 -7 28 C-7.12375 28.639375 -7.2475 29.27875 -7.375 29.9375 C-7.58125 30.618125 -7.7875 31.29875 -8 32 C-8.99 32.495 -8.99 32.495 -10 33 C-10.309375 34.11375 -10.61875 35.2275 -10.9375 36.375 C-11.99567106 39.98523069 -12.47748802 40.58259269 -15 43 C-15.33 44.010625 -15.66 45.02125 -16 46.0625 C-17 49 -17 49 -20 51 C-20.6875 49.1875 -20.6875 49.1875 -21 47 C-20 46 -19 45 -18 44 C-18.22757731 41.83700789 -18.22757731 41.83700789 -19 40 C-19.99 40 -20.98 40 -22 40 C-20.59113139 36.20157972 -18.82880444 32.84903805 -16.75 29.375 C-14.37910763 25.37104484 -12.07838016 21.34851543 -9.875 17.25 C-7.75158631 13.31543933 -5.50912412 9.50574822 -3.078125 5.75390625 C-1.92998702 3.88610207 -0.95398002 1.97300412 0 0 Z " fill="#062245" transform="translate(313,179)"/>
<path d="M0 0 C7.26 0 14.52 0 22 0 C22.33 1.98 22.66 3.96 23 6 C22.67 6.33 22.34 6.66 22 7 C20.02 7 18.04 7 16 7 C16 13.93 16 20.86 16 28 C13.03 28 10.06 28 7 28 C7 21.07 7 14.14 7 7 C5.02 7 3.04 7 1 7 C0 2.25 0 2.25 0 0 Z " fill="#2A4B70" transform="translate(253,275)"/>
<path d="M0 0 C2.64 0 5.28 0 8 0 C9 1 9 1 9.11352539 2.94946289 C9.10828857 3.7821167 9.10305176 4.61477051 9.09765625 5.47265625 C9.09443359 6.37177734 9.09121094 7.27089844 9.08789062 8.19726562 C9.07951172 9.14279297 9.07113281 10.08832031 9.0625 11.0625 C9.05798828 12.01189453 9.05347656 12.96128906 9.04882812 13.93945312 C9.0370011 16.29303065 9.02052025 18.64648477 9 21 C11.64 21.33 14.28 21.66 17 22 C17 23.98 17 25.96 17 28 C13.9042768 29.5478616 10.73495602 28.83182026 7.375 28.5625 C4.94125 28.376875 2.5075 28.19125 0 28 C0 18.76 0 9.52 0 0 Z " fill="#103355" transform="translate(226,275)"/>
<path d="M0 0 C-3 2 -3 2 -7 2 C-7.33 2.99 -7.66 3.98 -8 5 C-9.98 4.67 -11.96 4.34 -14 4 C-14 4.66 -14 5.32 -14 6 C-12.02 6.33 -10.04 6.66 -8 7 C-7.505 9.97 -7.505 9.97 -7 13 C-7.99 12.67 -8.98 12.34 -10 12 C-10.33 12.66 -10.66 13.32 -11 14 C-11.66 13.01 -12.32 12.02 -13 11 C-15.11699618 10.6686713 -15.11699618 10.6686713 -17.6875 10.875 C-24.22895943 11.05157927 -30.71389598 10.80568301 -37.25 10.5 C-38.29889404 10.45214355 -39.34778809 10.40428711 -40.4284668 10.35498047 C-42.95242457 10.23890296 -45.4762552 10.120606 -48 10 C-48 9.34 -48 8.68 -48 8 C-42.68661221 6.6247615 -37.39555776 5.44798041 -31.9921875 4.4921875 C-30.89851364 4.29666794 -30.89851364 4.29666794 -29.78274536 4.09719849 C-28.25532678 3.82521149 -26.72764316 3.55470894 -25.19970703 3.28564453 C-22.87294408 2.87463684 -20.54781964 2.45510673 -18.22265625 2.03515625 C-16.72925881 1.77031325 -15.2357721 1.50597296 -13.7421875 1.2421875 C-13.05454315 1.11721893 -12.3668988 0.99225037 -11.65841675 0.86349487 C-7.72517564 0.18032401 -3.9901048 -0.12311792 0 0 Z " fill="#14335B" transform="translate(342,136)"/>
<path d="M0 0 C2.31 0 4.62 0 7 0 C8.0394775 3.1184325 8.11494838 5.27475586 8.09765625 8.54296875 C8.09443359 9.61611328 8.09121094 10.68925781 8.08789062 11.79492188 C8.07951172 12.91447266 8.07113281 14.03402344 8.0625 15.1875 C8.05798828 16.31865234 8.05347656 17.44980469 8.04882812 18.61523438 C8.03703498 21.41020927 8.0205765 24.2050782 8 27 C5.69 27.66 3.38 28.32 1 29 C-1 27 -1 27 -1.24291992 24.50976562 C-1.23881104 23.48560547 -1.23470215 22.46144531 -1.23046875 21.40625 C-1.22853516 20.29378906 -1.22660156 19.18132812 -1.22460938 18.03515625 C-1.21236328 16.86855469 -1.20011719 15.70195312 -1.1875 14.5 C-1.18685547 13.33339844 -1.18621094 12.16679687 -1.18554688 10.96484375 C-1.14026365 2.2805273 -1.14026365 2.2805273 0 0 Z " fill="#03254B" transform="translate(339,275)"/>
<path d="M0 0 C-0.33 1.65 -0.66 3.3 -1 5 C0.98 4.67 2.96 4.34 5 4 C3.37804818 9.1718841 0.18275551 13.06520068 -3.0625 17.3125 C-3.61744141 18.05306641 -4.17238281 18.79363281 -4.74414062 19.55664062 C-7.77223575 23.55844722 -7.77223575 23.55844722 -9 25 C-9.33 25 -9.66 25 -10 25 C-9.67 22.69 -9.34 20.38 -9 18 C-8.01 18 -7.02 18 -6 18 C-6.33 17.34 -6.66 16.68 -7 16 C-9.02463255 15.34786708 -9.02463255 15.34786708 -11 15 C-11 15.66 -11 16.32 -11 17 C-13.66666667 18.33333333 -16.33333333 19.66666667 -19 21 C-17.94651352 17.83954057 -16.59985901 15.33684932 -14.625 12.6875 C-11.88762798 8.99976441 -9.96417586 5.14659349 -8 1 C-7.67 1.66 -7.34 2.32 -7 3 C-7.33 3.66 -7.66 4.32 -8 5 C-7.34 5 -6.68 5 -6 5 C-5.67 6.65 -5.34 8.3 -5 10 C-4.34 10 -3.68 10 -3 10 C-3.33 8.02 -3.66 6.04 -4 4 C-4.66 4 -5.32 4 -6 4 C-5.67 3.01 -5.34 2.02 -5 1 C-2 0 -2 0 0 0 Z " fill="#10305A" transform="translate(338,149)"/>
<path d="M0 0 C1.77582803 6.20805998 2.40643058 11.63554645 1 18 C0 19 0 19 -3.875 19.25 C-7.70169024 19.2020808 -7.70169024 19.2020808 -9.9375 17.6875 C-12.33959546 13.87240722 -12.29757655 10.38925406 -12 6 C-10.6875 2.625 -10.6875 2.625 -9 0 C-5.52176885 -1.15941038 -3.54104422 -0.70820884 0 0 Z M-7 4 C-6.67 4.66 -6.34 5.32 -6 6 C-5.67 5.34 -5.34 4.68 -5 4 C-5.66 4 -6.32 4 -7 4 Z M-4 4 C-4.33 4.66 -4.66 5.32 -5 6 C-4.34 6 -3.68 6 -3 6 C-3.33 5.34 -3.66 4.68 -4 4 Z M-7 10 C-6.67 11.65 -6.34 13.3 -6 15 C-4.68 14.67 -3.36 14.34 -2 14 C-2.33 12.68 -2.66 11.36 -3 10 C-4.32 10 -5.64 10 -7 10 Z " fill="#416578" transform="translate(398,315)"/>
<path d="M0 0 C3.49107379 1.16369126 3.85222763 1.88973538 5.6875 4.9375 C6.34298828 6.00291016 6.34298828 6.00291016 7.01171875 7.08984375 C8 9 8 9 8 11 C8.66 11 9.32 11 10 11 C10 7.7 10 4.4 10 1 C10.99 0.67 11.98 0.34 13 0 C14.65497356 3.30994713 14.10084335 6.99123 14.0625 10.625 C14.05798828 11.42679687 14.05347656 12.22859375 14.04882812 13.0546875 C14.03703168 15.03649006 14.01909605 17.01825433 14 19 C12.35 19.33 10.7 19.66 9 20 C8.66226563 19.43410156 8.32453125 18.86820312 7.9765625 18.28515625 C7.53054687 17.55167969 7.08453125 16.81820313 6.625 16.0625 C6.18414062 15.33160156 5.74328125 14.60070312 5.2890625 13.84765625 C4.1226016 11.86227728 4.1226016 11.86227728 2 11 C2.33 13.64 2.66 16.28 3 19 C1.68 19.33 0.36 19.66 -1 20 C-1.22224251 17.41718164 -1.42823488 14.83477813 -1.625 12.25 C-1.72167969 11.15558594 -1.72167969 11.15558594 -1.8203125 10.0390625 C-2.10381649 6.14088264 -2.27081383 3.29354678 0 0 Z " fill="#3E5D70" transform="translate(205,314)"/>
<path d="M0 0 C3 2 3 2 5 4 C4.67 5.32 4.34 6.64 4 8 C2.0625 7.625 2.0625 7.625 0 7 C-0.33 6.34 -0.66 5.68 -1 5 C-3.31 5.33 -5.62 5.66 -8 6 C-7.67 8.31 -7.34 10.62 -7 13 C-4.69 13.33 -2.38 13.66 0 14 C0.33 13.01 0.66 12.02 1 11 C2.32 11 3.64 11 5 11 C4.69209738 13.84809926 4.34521809 15.58286148 2.5 17.8125 C-1.31641476 19.62529701 -4.86903159 19.92473054 -9 19 C-12.14558801 15.85441199 -12.89775628 13.83255597 -13.4375 9.4375 C-12.97584483 5.8102094 -12.20606252 3.88485099 -10 1 C-6.80261338 -0.59869331 -3.469833 -0.51085495 0 0 Z " fill="#526E81" transform="translate(245,315)"/>
<path d="M0 0 C5.18079096 0 5.18079096 0 8 1 C10.58533962 4.83883762 11.26384768 7.60145634 10.9375 12.1875 C10 16 10 16 8.375 18.5625 C6 20 6 20 2.4375 20 C-1 19 -1 19 -2.9375 17.4375 C-4.45952651 13.94579212 -4.54830904 10.70998715 -4 7 C-1.84375 1.84375 -1.84375 1.84375 0 0 Z M3 5 C0.58878141 6.95633975 0.58878141 6.95633975 0.875 10.625 C0.91625 11.73875 0.9575 12.8525 1 14 C2.98 14.99 2.98 14.99 5 16 C6.23267348 14.99163938 6.23267348 14.99163938 6.09765625 12.93359375 C6.08605469 12.10988281 6.07445312 11.28617187 6.0625 10.4375 C6.05347656 9.61121094 6.04445313 8.78492188 6.03515625 7.93359375 C6.02355469 7.29550781 6.01195312 6.65742188 6 6 C5.01 5.67 4.02 5.34 3 5 Z " fill="#2F566C" transform="translate(336,314)"/>
<path d="M0 0 C3 2 3 2 4 5.1875 C4 10.38843511 2.28678748 12.07188814 -1 16 C0.65 16 2.3 16 4 16 C4 17.32 4 18.64 4 20 C-0.04141194 20.63394697 -3.9065307 21.12404452 -8 21 C-8.66 19.68 -9.32 18.36 -10 17 C-7.22719294 13.91910327 -4.93673644 12.31224548 -1 11 C-1 9.02 -1 7.04 -1 5 C-1.5775 5.66 -2.155 6.32 -2.75 7 C-5 9 -5 9 -9 9 C-9.36337162 5.72965541 -9.28544288 4.39116247 -7.3125 1.6875 C-4.55843891 -0.32222026 -3.33579974 -0.51319996 0 0 Z " fill="#37556B" transform="translate(369,314)"/>
<path d="M0 0 C0.70125 0.00515625 1.4025 0.0103125 2.125 0.015625 C2.82625 0.01046875 3.5275 0.0053125 4.25 0 C6.125 0.265625 6.125 0.265625 8.125 2.265625 C7.75 4.890625 7.75 4.890625 7.125 7.265625 C5.145 6.605625 3.165 5.945625 1.125 5.265625 C2.62849397 8.27261293 5.1668948 8.84819959 8.125 10.265625 C8.455 10.595625 8.785 10.925625 9.125 11.265625 C8.83769945 13.60507236 8.50563221 15.9395393 8.125 18.265625 C2.92713904 19.99824532 2.92713904 19.99824532 0.125 20.265625 C-2.375 18.640625 -2.375 18.640625 -3.875 16.265625 C-3.875 14.945625 -3.875 13.625625 -3.875 12.265625 C-0.94620629 12.89322365 1.48595629 13.85185159 4.125 15.265625 C1.63547079 12.59827227 -0.50908134 10.70816157 -3.875 9.265625 C-4 5.890625 -4 5.890625 -3.875 2.265625 C-1.875 0.265625 -1.875 0.265625 0 0 Z " fill="#445D6C" transform="translate(162.875,314.734375)"/>
<path d="M0 0 C6.46153846 0.46153846 6.46153846 0.46153846 9 3 C9.48602588 7.29322859 9.46241608 9.32082639 7 12.9375 C6.34 13.618125 5.68 14.29875 5 15 C6.65 15.33 8.3 15.66 10 16 C9.67 17.32 9.34 18.64 9 20 C4.71 20 0.42 20 -4 20 C-2.82224468 14.11122338 -1.45600475 13.62050386 3 10 C3.94436349 7.83468832 3.94436349 7.83468832 4 6 C3.34 6 2.68 6 2 6 C1.01 7.485 1.01 7.485 0 9 C-1.32 8.67 -2.64 8.34 -4 8 C-2.25 2.25 -2.25 2.25 0 0 Z " fill="#405B6D" transform="translate(310,314)"/>
<path d="M0 0 C1.98 0 3.96 0 6 0 C6.28782376 3.05093186 6.39946991 5.95539152 6 9 C3.11539735 12.28247888 -0.32665621 12.29216194 -4.5 12.5625 C-9.34684183 12.44476295 -9.34684183 12.44476295 -11.82421875 10.7578125 C-14.08717187 8.15120175 -15 6.47043584 -15 3 C-11.6875 2.3125 -11.6875 2.3125 -8 2 C-6.375 3.4375 -6.375 3.4375 -5 5 C-2.37429296 5.25069913 -2.37429296 5.25069913 0 5 C0 3.35 0 1.7 0 0 Z " fill="#0E2F56" transform="translate(374,291)"/>
<path d="M0 0 C2.64 0 5.28 0 8 0 C12.69728 10.20096 12.69728 10.20096 11 16 C11 16.99 11 17.98 11 19 C10.43463261 22.01529276 9.77276293 23.3408556 8 26 C0 7.14893617 0 7.14893617 0 0 Z " fill="#0C2C56" transform="translate(146,275)"/>
<path d="M0 0 C0 7.23529412 0 7.23529412 -2 11 C-2.33 12.32 -2.66 13.64 -3 15 C0.3 14.67 3.6 14.34 7 14 C7 14.66 7 15.32 7 16 C9.64 16.33 12.28 16.66 15 17 C15 17.33 15 17.66 15 18 C13.08574219 18.07347656 13.08574219 18.07347656 11.1328125 18.1484375 C9.46351928 18.22346191 7.79424954 18.29900988 6.125 18.375 C4.86236328 18.42140625 4.86236328 18.42140625 3.57421875 18.46875 C2.76855469 18.50742188 1.96289062 18.54609375 1.1328125 18.5859375 C0.38918457 18.6173584 -0.35444336 18.6487793 -1.12060547 18.68115234 C-3.24010974 18.85419551 -3.24010974 18.85419551 -5 21 C-6.33599921 20.67751743 -7.66893378 20.34227417 -9 20 C-11.68149993 20.38567131 -11.68149993 20.38567131 -14 21 C-11.08369093 13.0699379 -6.36461461 5.59314617 0 0 Z " fill="#1F3D60" transform="translate(224,128)"/>
<path d="M0 0 C0.99386719 0.00902344 1.98773438 0.01804687 3.01171875 0.02734375 C4.15060547 0.04474609 4.15060547 0.04474609 5.3125 0.0625 C5.6425 1.7125 5.9725 3.3625 6.3125 5.0625 C3.0125 4.7325 -0.2875 4.4025 -3.6875 4.0625 C-3.71328125 4.82175781 -3.7390625 5.58101563 -3.765625 6.36328125 C-3.82234375 7.35714844 -3.8790625 8.35101563 -3.9375 9.375 C-4.00710937 10.85419922 -4.00710937 10.85419922 -4.078125 12.36328125 C-4.82858185 15.68742026 -5.89263443 16.27203924 -8.6875 18.0625 C-9.48373822 20.15665804 -9.48373822 20.15665804 -9.6875 22.0625 C-12.91871664 18.0234792 -13.19579706 14.49670149 -13.046875 9.5078125 C-12.51883821 5.91486653 -11.0861545 3.73528644 -8.6875 1.0625 C-5.53819107 0.01273036 -3.29935544 -0.03881595 0 0 Z " fill="#1A3A5D" transform="translate(197.6875,276.9375)"/>
<path d="M0 0 C3.3 0 6.6 0 10 0 C10.33 1.32 10.66 2.64 11 4 C10 5 10 5 7.4375 5.0625 C6.2309375 5.0315625 6.2309375 5.0315625 5 5 C4.67 6.32 4.34 7.64 4 9 C5.98 9 7.96 9 10 9 C10.33 9.66 10.66 10.32 11 11 C10.34 11.66 9.68 12.32 9 13 C6.375 12.625 6.375 12.625 4 12 C4 13.32 4 14.64 4 16 C5.98 16 7.96 16 10 16 C10 17.32 10 18.64 10 20 C5.05 20.495 5.05 20.495 0 21 C-1.07875823 13.80827843 -0.7938642 7.21805755 0 0 Z " fill="#234251" transform="translate(264,314)"/>
<path d="M0 0 C2.5625 1.5625 2.5625 1.5625 5 4 C5.33360496 9.67128428 2.84711895 13.03977662 -0.30078125 17.4453125 C-3.35212959 22.0328569 -5.6310105 27.03520286 -8 32 C-8.99 32 -9.98 32 -11 32 C-13.95047835 27.38987758 -15.5497272 24.63470383 -15 19 C-11.44175575 19 -8.42984189 19.05383672 -5 20 C-4.87625 19.360625 -4.7525 18.72125 -4.625 18.0625 C-4.41875 17.381875 -4.2125 16.70125 -4 16 C-3.34 15.67 -2.68 15.34 -2 15 C-2 13.68 -2 12.36 -2 11 C-1.67 10.34 -1.34 9.68 -1 9 C0.32 9.33 1.64 9.66 3 10 C3 8.68 3 7.36 3 6 C2.01 5.67 1.02 5.34 0 5 C0 3.35 0 1.7 0 0 Z " fill="#08264F" transform="translate(291,150)"/>
<path d="M0 0 C3.87230317 2.69377611 6.08972392 5.63341564 7.875 10 C8.25326338 12.82021687 8.13042055 15.13928988 7.875 18 C4.92316899 15.04816899 4.78836012 12.04488053 3.875 8 C1.895 8.99 -0.085 9.98 -2.125 11 C-2.455 10.34 -2.785 9.68 -3.125 9 C-6.46993684 8.00555932 -8.81455197 7.89651732 -12.125 9 C-12.125 8.01 -12.125 7.02 -12.125 6 C-4.375 5.875 -4.375 5.875 -2.125 7 C-2.455 5.35 -2.785 3.7 -3.125 2 C-3.805625 2.165 -4.48625 2.33 -5.1875 2.5 C-8.5414822 3.07089059 -11.72889805 3.06659023 -15.125 3 C-15.125 2.34 -15.125 1.68 -15.125 1 C-9.92546622 -1.52098607 -5.50923748 -1.76295599 0 0 Z " fill="#375775" transform="translate(206.125,275)"/>
<path d="M0 0 C2.97 0 5.94 0 9 0 C8.44915905 5.8756368 7.55242359 11.30778017 6 17 C5.67 16.01 5.34 15.02 5 14 C3.02 14.99 1.04 15.98 -1 17 C-1 16.34 -1 15.68 -1 15 C-0.34 15 0.32 15 1 15 C0.34 14.34 -0.32 13.68 -1 13 C-2.71128142 8.42354454 -1.14823534 4.59294135 0 0 Z " fill="#1B3B5E" transform="translate(317,275)"/>
<path d="M0 0 C0.33 0 0.66 0 1 0 C1.103125 1.258125 1.20625 2.51625 1.3125 3.8125 C1.64858808 6.60499657 1.80025876 7.74433121 3.5625 10 C4.036875 10.33 4.51125 10.66 5 11 C4.01 12.485 4.01 12.485 3 14 C2.34 14 1.68 14 1 14 C0.9175 14.556875 0.835 15.11375 0.75 15.6875 C-0.22610013 18.69714206 -1.95188814 20.62154752 -4 23 C-4.45375 22.175 -4.9075 21.35 -5.375 20.5 C-5.91125 19.675 -6.4475 18.85 -7 18 C-7.66 18 -8.32 18 -9 18 C-9.33 19.32 -9.66 20.64 -10 22 C-10.66 22 -11.32 22 -12 22 C-10.60596497 18.16466979 -8.80677636 14.96511255 -6.5625 11.5625 C-4.11316683 7.7864447 -1.87792415 4.08724668 0 0 Z " fill="#1A3862" transform="translate(313,179)"/>
<path d="M0 0 C1.55400513 -0.0148645 1.55400513 -0.0148645 3.1394043 -0.0300293 C10.56978209 0.05164904 17.25316951 1.35335228 24.375 3.4375 C20.58245296 4.48139637 17.12901222 4.57066894 13.1875 4.5625 C11.93582031 4.56507812 10.68414062 4.56765625 9.39453125 4.5703125 C6.375 4.4375 6.375 4.4375 5.375 3.4375 C-2.68909944 2.94789396 -10.79259414 3.45599493 -18.625 5.4375 C-20.95747761 5.77676947 -23.29085471 6.10990066 -25.625 6.4375 C-27.29434283 6.75716139 -28.9623217 7.08481066 -30.625 7.4375 C-21.97941389 0.27049394 -10.71394951 0.05320841 0 0 Z " fill="#2F4965" transform="translate(274.625,107.5625)"/>
<path d="M0 0 C0.99 0 1.98 0 3 0 C2.67 0.99 2.34 1.98 2 3 C1.34 3 0.68 3 0 3 C0 4.65 0 6.3 0 8 C0.99 8 1.98 8 3 8 C3 8.99 3 9.98 3 11 C4.65 11 6.3 11 8 11 C8 11.33 8 11.66 8 12 C3.71 12.99 -0.58 13.98 -5 15 C-4.67 16.65 -4.34 18.3 -4 20 C-5.03125 19.731875 -6.0625 19.46375 -7.125 19.1875 C-11.18449759 18.9910727 -11.57538732 19.00572884 -14.4375 21.4375 C-15.283125 22.283125 -16.12875 23.12875 -17 24 C-17 20.45595664 -16.39010515 19.89732095 -14.125 17.3125 C-13.59132813 16.68988281 -13.05765625 16.06726563 -12.5078125 15.42578125 C-11 14 -11 14 -9 14 C-8.59974609 13.13761719 -8.59974609 13.13761719 -8.19140625 12.2578125 C-6.95935505 9.92297449 -5.55161725 7.96105816 -3.9375 5.875 C-1.76773805 3.06372737 -1.76773805 3.06372737 0 0 Z " fill="#304E6F" transform="translate(291,128)"/>
<path d="M0 0 C2.97 0 5.94 0 9 0 C10.59138085 4.17737474 11.21278058 7.53160785 11 12 C9.35 11.67 7.7 11.34 6 11 C5.92572162 14.34252724 5.93453047 16.8035914 7 20 C6.34 20.66 5.68 21.32 5 22 C4.1606242 18.89743488 3.3295495 15.79270556 2.5 12.6875 C2.26152344 11.80642578 2.02304687 10.92535156 1.77734375 10.01757812 C1.55175781 9.17001953 1.32617188 8.32246094 1.09375 7.44921875 C0.88427734 6.66893311 0.67480469 5.88864746 0.45898438 5.0847168 C0 3 0 3 0 0 Z " fill="#3B607C" transform="translate(286,275)"/>
<path d="M0 0 C0.99 0 1.98 0 3 0 C4.85939879 7.78069851 6.41467342 14.98298054 6 23 C5.34 23 4.68 23 4 23 C2.58643007 20.54981212 1.96766165 18.77363158 1.5625 15.9375 C0.96068587 12.79469287 0.57584589 11.8126323 -2 10 C-4.10332891 9.28552357 -4.10332891 9.28552357 -6 9 C-6 9.66 -6 10.32 -6 11 C-6.66 10.67 -7.32 10.34 -8 10 C-6.7260411 7.96166576 -5.38938077 5.96147874 -4 4 C-3.34 4 -2.68 4 -2 4 C-1.34 2.68 -0.68 1.36 0 0 Z " fill="#0C3656" transform="translate(342,161)"/>
<path d="M0 0 C0.33 0.66 0.66 1.32 1 2 C-0.221652 3.90068438 -1.45268794 5.79533883 -2.6875 7.6875 C-3.71423828 9.27111328 -3.71423828 9.27111328 -4.76171875 10.88671875 C-6.98753814 13.98266649 -9.23970303 16.39439568 -12 19 C-12 17.35 -12 15.7 -12 14 C-11.34 14 -10.68 14 -10 14 C-10.33 13.01 -10.66 12.02 -11 11 C-10.34 11 -9.68 11 -9 11 C-9.309375 10.38125 -9.61875 9.7625 -9.9375 9.125 C-10.625 7.75 -11.3125 6.375 -12 5 C-11.34 4.34 -10.68 3.68 -10 3 C-10.66 2.34 -11.32 1.68 -12 1 C-7.95858806 0.36605303 -4.0934693 -0.12404452 0 0 Z " fill="#17365F" transform="translate(355,134)"/>
<path d="M0 0 C4.29 0 8.58 0 13 0 C13 2.31 13 4.62 13 7 C10.04335481 8.4783226 7.25770263 8.06032783 4 8 C4 8.33 4 8.66 4 9 C6.31 9.33 8.62 9.66 11 10 C11 12.31 11 14.62 11 17 C8.36 17 5.72 17 3 17 C3 15.35 3 13.7 3 12 C2.34 12 1.68 12 1 12 C1 10.02 1 8.04 1 6 C4.69418201 4.768606 7.2056261 5.35567236 11 6 C11.33 4.35 11.66 2.7 12 1 C8.04 1 4.08 1 0 1 C0 0.67 0 0.34 0 0 Z " fill="#386181" transform="translate(399,275)"/>
<path d="M0 0 C0.33 0 0.66 0 1 0 C1.04898437 0.73605469 1.09796875 1.47210938 1.1484375 2.23046875 C1.22320312 3.20628906 1.29796875 4.18210937 1.375 5.1875 C1.44460938 6.15042969 1.51421875 7.11335938 1.5859375 8.10546875 C1.87446163 11.03455904 1.87446163 11.03455904 3.1640625 13.67578125 C3.43992187 14.44277344 3.71578125 15.20976562 4 16 C3.34 16.99 2.68 17.98 2 19 C3.32 19.33 4.64 19.66 6 20 C6 19.34 6 18.68 6 18 C9.3 17.67 12.6 17.34 16 17 C16 18.98 16 20.96 16 23 C10.72 23 5.44 23 0 23 C0 15.41 0 7.82 0 0 Z " fill="#032449" transform="translate(395,279)"/>
<path d="M0 0 C0.66 0.33 1.32 0.66 2 1 C3.27037109 1.55494141 3.27037109 1.55494141 4.56640625 2.12109375 C5.55511719 2.55550781 6.54382813 2.98992187 7.5625 3.4375 C8.55378906 3.86933594 9.54507812 4.30117188 10.56640625 4.74609375 C13 6 13 6 14 8 C14.06950541 9.54023996 14.08452357 11.08334988 14.0625 12.625 C14.05347656 13.44226563 14.04445313 14.25953125 14.03515625 15.1015625 C14.02355469 15.72804688 14.01195312 16.35453125 14 17 C13.67 17 13.34 17 13 17 C13 14.36 13 11.72 13 9 C11.35 9.33 9.7 9.66 8 10 C7.67 11.32 7.34 12.64 7 14 C6.34 14 5.68 14 5 14 C4.566875 13.54625 4.13375 13.0925 3.6875 12.625 C1.64371183 10.65690769 -0.34530324 9.93273129 -3 9 C-3 8.67 -3 8.34 -3 8 C-2.030625 7.87625 -1.06125 7.7525 -0.0625 7.625 C0.948125 7.41875 1.95875 7.2125 3 7 C3.33 6.34 3.66 5.68 4 5 C1.69 5.33 -0.62 5.66 -3 6 C-2.67 5.01 -2.34 4.02 -2 3 C-1.34 3 -0.68 3 0 3 C0 2.01 0 1.02 0 0 Z " fill="#3B5879" transform="translate(367,282)"/>
<path d="M0 0 C0.99 0.33 1.98 0.66 3 1 C3 7.27 3 13.54 3 20 C2.01 20.33 1.02 20.66 0 21 C-2.55049551 18.44950449 -2.2606479 16.76517246 -2.2734375 13.28320312 C-2.26570312 12.55037109 -2.25796875 11.81753906 -2.25 11.0625 C-2.25773438 10.33353516 -2.26546875 9.60457031 -2.2734375 8.85351562 C-2.25946171 5.04161777 -2.16125927 3.2418889 0 0 Z " fill="#3C576C" transform="translate(187,314)"/>
<path d="M0 0 C4.87097377 0.11673358 8.08659471 0.3102858 12.0625 3.3125 C14 6 14 6 14 10 C10.14670108 10.83110369 7.76769646 11.31034538 4.0625 9.8125 C3.381875 9.214375 2.70125 8.61625 2 8 C2 4 2 4 3.5 2.25 C3.995 1.8375 4.49 1.425 5 1 C3.35 1 1.7 1 0 1 C0 0.67 0 0.34 0 0 Z " fill="#052147" transform="translate(367,274)"/>
<path d="M0 0 C0.66 0.33 1.32 0.66 2 1 C1.34 1.66 0.68 2.32 0 3 C4.29 3 8.58 3 13 3 C12.67 3.99 12.34 4.98 12 6 C6.95885883 7.00984399 2.11744878 7.18327768 -3 7.1875 C-4.17175781 7.20586914 -4.17175781 7.20586914 -5.3671875 7.22460938 C-9.98112344 7.23626073 -13.65726671 6.76075564 -18 5 C-18 4.34 -18 3.68 -18 3 C-11.07 3.495 -11.07 3.495 -4 4 C-3.67 3.34 -3.34 2.68 -3 2 C-2.01 1.34 -1.02 0.68 0 0 Z " fill="#244464" transform="translate(278,245)"/>
<path d="M0 0 C4 0 4 0 5.69921875 1.22265625 C7.26935011 3.36803093 7.55047609 4.80393762 7.8125 7.4375 C7.90144531 8.19933594 7.99039062 8.96117187 8.08203125 9.74609375 C7.98860268 12.31315505 7.29378268 13.80706333 6 16 C3.36 16 0.72 16 -2 16 C-1.01 15.34 -0.02 14.68 1 14 C0.01 13.34 -0.98 12.68 -2 12 C-2.1875 9.375 -2.1875 9.375 -2 7 C-0.68 6.34 0.64 5.68 2 5 C1.67 4.34 1.34 3.68 1 3 C1.33 2.67 1.66 2.34 2 2 C1.34 1.34 0.68 0.68 0 0 Z M-1 7 C-0.67 8.65 -0.34 10.3 0 12 C1.32 11.67 2.64 11.34 4 11 C3.67 9.68 3.34 8.36 3 7 C1.68 7 0.36 7 -1 7 Z " fill="#678091" transform="translate(392,318)"/>
<path d="M0 0 C1.23556641 0.01740234 1.23556641 0.01740234 2.49609375 0.03515625 C3.32238281 0.04417969 4.14867187 0.05320312 5 0.0625 C5.63808594 0.07410156 6.27617187 0.08570313 6.93359375 0.09765625 C7.60907953 2.15728477 8.27363687 4.22049947 8.93359375 6.28515625 C9.30484375 7.43371094 9.67609375 8.58226562 10.05859375 9.765625 C10.83989928 12.74086437 11.11722681 15.05049521 10.93359375 18.09765625 C10.64484375 17.49953125 10.35609375 16.90140625 10.05859375 16.28515625 C8.88617349 13.90437833 8.88617349 13.90437833 6.93359375 11.09765625 C6.27359375 11.09765625 5.61359375 11.09765625 4.93359375 11.09765625 C4.60359375 9.11765625 4.27359375 7.13765625 3.93359375 5.09765625 C2.28359375 4.76765625 0.63359375 4.43765625 -1.06640625 4.09765625 C-1.19015625 4.73703125 -1.31390625 5.37640625 -1.44140625 6.03515625 C-1.64765625 6.71578125 -1.85390625 7.39640625 -2.06640625 8.09765625 C-3.05640625 8.59265625 -3.05640625 8.59265625 -4.06640625 9.09765625 C-3.07168497 0.1451647 -3.07168497 0.1451647 0 0 Z " fill="#375772" transform="translate(304.06640625,274.90234375)"/>
<path d="M0 0 C0 1.32 0 2.64 0 4 C-7.92 4 -15.84 4 -24 4 C-24 3.34 -24 2.68 -24 2 C-16.09388645 -0.63537118 -8.23134837 -0.17981101 0 0 Z " fill="#052348" transform="translate(318,142)"/>
<path d="M0 0 C0.99 0.33 1.98 0.66 3 1 C5.33299825 1.03954234 7.66708189 1.04401732 10 1 C10 1.33 10 1.66 10 2 C7.03 2.66 4.06 3.32 1 4 C1 5.65 1 7.3 1 9 C2.32 9.33 3.64 9.66 5 10 C0.545 10.495 0.545 10.495 -4 11 C-3.01 10.34 -2.02 9.68 -1 9 C-1.721875 8.87625 -2.44375 8.7525 -3.1875 8.625 C-7.11546779 7.75211827 -10.1263324 6.8736676 -13 4 C-8.46298506 2.54815522 -4.81938524 1.76490804 0 2 C0 1.34 0 0.68 0 0 Z " fill="#18365E" transform="translate(251,136)"/>
<path d="M0 0 C1.32 0 2.64 0 4 0 C3.69209738 2.84809926 3.34521809 4.58286148 1.5 6.8125 C-2.20296689 8.57140928 -5.96339084 8.6000365 -10 8 C-12 6 -12 6 -12.125 3.375 C-12.08375 2.59125 -12.0425 1.8075 -12 1 C-11.34 1 -10.68 1 -10 1 C-10 1.66 -10 2.32 -10 3 C-7.03 3 -4.06 3 -1 3 C-0.67 2.01 -0.34 1.02 0 0 Z " fill="#355163" transform="translate(246,326)"/>
<path d="M0 0 C1.4800841 0.11362262 2.95910074 0.24122908 4.4375 0.375 C5.26121094 0.44460937 6.08492187 0.51421875 6.93359375 0.5859375 C7.95646484 0.79089844 7.95646484 0.79089844 9 1 C9.33 1.66 9.66 2.32 10 3 C8.35 3.66 6.7 4.32 5 5 C7.60316291 6.11564125 9.95549279 6.99190778 12.75 7.5 C13.86375 7.7475 13.86375 7.7475 15 8 C15.33 8.66 15.66 9.32 16 10 C8.95559921 10.21133202 2.75887425 10.07965362 -4 8 C-3.34 7.5875 -2.68 7.175 -2 6.75 C-1.34 6.1725 -0.68 5.595 0 5 C0 3.68 0 2.36 0 1 C0 0.67 0 0.34 0 0 Z " fill="#05224C" transform="translate(235,136)"/>
<path d="M0 0 C0.99 0.66 1.98 1.32 3 2 C3.6875 5.625 3.6875 5.625 4 9 C2.68 8.34 1.36 7.68 0 7 C-0.33 7.66 -0.66 8.32 -1 9 C-1 7.68 -1 6.36 -1 5 C-1.5775 5.66 -2.155 6.32 -2.75 7 C-5 9 -5 9 -9 9 C-9.36337162 5.72965541 -9.28544288 4.39116247 -7.3125 1.6875 C-4.55843891 -0.32222026 -3.33579974 -0.51319996 0 0 Z " fill="#426575" transform="translate(369,314)"/>
<path d="M0 0 C2.0625 2.0625 2.0625 2.0625 4 5 C3.91363648 9.83635685 2.75096132 13.05296854 0 17 C-1.65 16.67 -3.3 16.34 -5 16 C-4.67 14.68 -4.34 13.36 -4 12 C-3.01 12 -2.02 12 -1 12 C-1 11.01 -1 10.02 -1 9 C-1.99 8.67 -2.98 8.34 -4 8 C-3.34 8 -2.68 8 -2 8 C-2.66 6.35 -3.32 4.7 -4 3 C-3.34 3 -2.68 3 -2 3 C-2 3.66 -2 4.32 -2 5 C-1.34 5 -0.68 5 0 5 C0.33 4.34 0.66 3.68 1 3 C0.34 3 -0.32 3 -1 3 C-0.67 2.01 -0.34 1.02 0 0 Z " fill="#18395B" transform="translate(278,186)"/>
<path d="M0 0 C2.97 0 5.94 0 9 0 C8.49202991 4.3177458 7.80317221 8.03302114 6 12 C5.34 12 4.68 12 4 12 C3.875 6.25 3.875 6.25 5 4 C4.01 4 3.02 4 2 4 C1.8453125 4.8971875 1.8453125 4.8971875 1.6875 5.8125 C0.91123545 8.28243264 -0.07088921 9.32251235 -2 11 C-1.125 3.375 -1.125 3.375 0 0 Z " fill="#254564" transform="translate(165,275)"/>
<path d="M0 0 C-0.639375 0.2475 -1.27875 0.495 -1.9375 0.75 C-4.18741541 1.81562433 -4.18741541 1.81562433 -4.75 4.125 C-4.8325 4.74375 -4.915 5.3625 -5 6 C-8.37817425 6.84454356 -10.67465243 7.10844919 -14 6 C-14.33 4.35 -14.66 2.7 -15 1 C-9.3314144 -1.42939383 -5.75710321 -2.79630727 0 0 Z " fill="#042653" transform="translate(266,139)"/>
<path d="M0 0 C2.625 -0.1875 2.625 -0.1875 5 0 C5.66 1.65 6.32 3.3 7 5 C6.01 5.33 5.02 5.66 4 6 C2.97299556 8.32891096 2.97299556 8.32891096 2.3125 11.0625 C2.06113281 11.98160156 1.80976563 12.90070313 1.55078125 13.84765625 C1.36902344 14.55792969 1.18726563 15.26820313 1 16 C0.01 16 -0.98 16 -2 16 C-1.79375 15.401875 -1.5875 14.80375 -1.375 14.1875 C-0.69328085 11.71549154 -0.69328085 11.71549154 -3 9 C-2.68074747 5.16896958 -2.15546298 3.23319447 0 0 Z " fill="#042355" transform="translate(303,279)"/>
<path d="M0 0 C0.66 0.33 1.32 0.66 2 1 C2 1.66 2 2.32 2 3 C3.32 2.67 4.64 2.34 6 2 C5.67 4.97 5.34 7.94 5 11 C1.7 11.33 -1.6 11.66 -5 12 C-4.625 9.5625 -4.625 9.5625 -4 7 C-3.34 6.67 -2.68 6.34 -2 6 C-1.27306096 4.02111039 -0.60183749 2.02045442 0 0 Z " fill="#0C2B53" transform="translate(316,287)"/>
<path d="M0 0 C0 0.99 0 1.98 0 3 C-0.7425 3.020625 -1.485 3.04125 -2.25 3.0625 C-5.43635755 4.14875826 -5.62280763 4.65282144 -7.125 7.5 C-9 11 -9 11 -12 12 C-12.33 12.99 -12.66 13.98 -13 15 C-13.8125 13.375 -13.8125 13.375 -14 11 C-12.7625 9.5459375 -12.7625 9.5459375 -11.5 8.0625 C-8.65346254 5.28551303 -8.65346254 5.28551303 -9.1875 2.125 C-9.455625 1.42375 -9.72375 0.7225 -10 0 C-5.91847062 -2.09907226 -4.08152938 -2.09907226 0 0 Z " fill="#042150" transform="translate(220,149)"/>
<path d="M0 0 C0.33 1.65 0.66 3.3 1 5 C-0.32 5.33 -1.64 5.66 -3 6 C-3 6.66 -3 7.32 -3 8 C0.3 8 3.6 8 7 8 C7 8.33 7 8.66 7 9 C-2.6347022 9.91116273 -2.6347022 9.91116273 -5.84375 7.76953125 C-8.07457708 5.14312146 -9 3.46818792 -9 0 C-5.62182575 -0.84454356 -3.32534757 -1.10844919 0 0 Z " fill="#264768" transform="translate(368,294)"/>
<path d="M0 0 C2.86724686 0.57344937 3.8614515 0.8614515 6 3 C5.01 4.485 5.01 4.485 4 6 C3.68369321 9.22417264 3.53706326 12.40372817 3.43359375 15.63867188 C3.20062789 20.79937211 3.20062789 20.79937211 1 23 C0.13190561 17.79826905 -0.12515348 12.83021184 -0.0625 7.5625 C-0.05798828 6.83095703 -0.05347656 6.09941406 -0.04882812 5.34570312 C-0.03718148 3.56376581 -0.01925191 1.78187137 0 0 Z " fill="#062557" transform="translate(228,277)"/>
<path d="M0 0 C0 5.33333333 0 10.66666667 0 16 C0.66 16.33 1.32 16.66 2 17 C1.34 17.66 0.68 18.32 0 19 C-1.01423834 17.61447798 -2.01087002 16.21605712 -3 14.8125 C-3.556875 14.03519531 -4.11375 13.25789062 -4.6875 12.45703125 C-6.151369 9.71663363 -6.26080213 8.05899163 -6 5 C-5.34 5 -4.68 5 -4 5 C-4 4.34 -4 3.68 -4 3 C-2 1.375 -2 1.375 0 0 Z " fill="#1F3D5E" transform="translate(254,149)"/>
<path d="M0 0 C0.99 0.33 1.98 0.66 3 1 C2.67 1.99 2.34 2.98 2 4 C2.66 4 3.32 4 4 4 C3.67 4.99 3.34 5.98 3 7 C2.34 6.67 1.68 6.34 1 6 C1.165 6.598125 1.33 7.19625 1.5 7.8125 C2 10 2 10 2 13 C0.35 13.33 -1.3 13.66 -3 14 C-5 11 -5 11 -4.875 7.5625 C-3.9392619 3.75270914 -3.0011414 2.42027532 0 0 Z " fill="#03214A" transform="translate(275,185)"/>
<path d="M0 0 C1.5625 1.25 1.5625 1.25 3 3 C2.7181953 5.32488881 2.04553582 6.90892835 1 9 C0.34 9 -0.32 9 -1 9 C-1.66 10.32 -2.32 11.64 -3 13 C-3.99 12.34 -4.98 11.68 -6 11 C-6.1875 8.375 -6.1875 8.375 -6 6 C-5.01 5.67 -4.02 5.34 -3 5 C-2.6278958 3.67696283 -2.29369827 2.34262065 -2 1 C-1.34 0.67 -0.68 0.34 0 0 Z " fill="#062444" transform="translate(306,196)"/>
<path d="M0 0 C0.66 1.32 1.32 2.64 2 4 C0.68 5.32 -0.64 6.64 -2 8 C-1.34 8 -0.68 8 0 8 C-0.67097672 12.19360449 -2.8558394 15.40334352 -5 19 C-5.99 18.67 -6.98 18.34 -8 18 C-8.33 17.34 -8.66 16.68 -9 16 C-8.06553465 13.96855359 -7.06775224 11.96466413 -6 10 C-5.34 10 -4.68 10 -4 10 C-3.8453125 8.9171875 -3.8453125 8.9171875 -3.6875 7.8125 C-2.94013068 4.75508007 -1.71954811 2.61670365 0 0 Z " fill="#2F4A60" transform="translate(290,219)"/>
<path d="M0 0 C0.99 0.33 1.98 0.66 3 1 C3 1.66 3 2.32 3 3 C4.32 2.67 5.64 2.34 7 2 C7 2.66 7 3.32 7 4 C6.34 4 5.68 4 5 4 C4.67 4.99 4.34 5.98 4 7 C3.3400321 8.66933058 2.67441131 10.3364521 2 12 C0.68 11.34 -0.64 10.68 -2 10 C-2.1953125 3.9453125 -2.1953125 3.9453125 -2 2 C-1.34 1.34 -0.68 0.68 0 0 Z " fill="#04234E" transform="translate(316,177)"/>
<path d="M0 0 C1.75948697 5.27846091 -1.69873681 10.1722177 -4 15 C-5.54479537 17.80367557 -7.17394813 20.36236952 -9 23 C-9.33 23 -9.66 23 -10 23 C-10.08226668 19.95613276 -9.97608217 17.92824652 -9 15 C-8.34 15 -7.68 15 -7 15 C-6.690625 14.05125 -6.38125 13.1025 -6.0625 12.125 C-5 9 -5 9 -4 7 C-3.34 7 -2.68 7 -2 7 C-2.33 5.35 -2.66 3.7 -3 2 C-2.01 2 -1.02 2 0 2 C0 1.34 0 0.68 0 0 Z " fill="#1E4260" transform="translate(343,200)"/>
<path d="M0 0 C2.97 0.33 5.94 0.66 9 1 C8.67 1.66 8.34 2.32 8 3 C7.01 3.33 6.02 3.66 5 4 C4.65099442 7.71736641 4.65099442 7.71736641 6.5 10.8125 C6.995 11.204375 7.49 11.59625 8 12 C6.02 12 4.04 12 2 12 C0.00214565 7.8794254 -0.17835515 4.54805635 0 0 Z " fill="#253F59" transform="translate(386,321)"/>
<path d="M0 0 C7.26 0 14.52 0 22 0 C22.33 1.98 22.66 3.96 23 6 C21.68 5.67 20.36 5.34 19 5 C19 4.34 19 3.68 19 3 C15.53777385 1.93276039 12.35960734 1.89826514 8.75 1.9375 C7.67234375 1.94652344 6.5946875 1.95554687 5.484375 1.96484375 C4.25460937 1.98224609 4.25460937 1.98224609 3 2 C3 2.99 3 3.98 3 5 C3.66 5.66 4.32 6.32 5 7 C3.35 6.67 1.7 6.34 0 6 C0 4.02 0 2.04 0 0 Z " fill="#1B3F5D" transform="translate(253,275)"/>
<path d="M0 0 C0.66 0.66 1.32 1.32 2 2 C1.01 3.485 1.01 3.485 0 5 C-0.66 5 -1.32 5 -2 5 C-2.12375 5.639375 -2.2475 6.27875 -2.375 6.9375 C-2.58125 7.618125 -2.7875 8.29875 -3 9 C-3.99 9.495 -3.99 9.495 -5 10 C-6.0409066 11.64142963 -7.04504326 13.30712215 -8 15 C-8.66 14.67 -9.32 14.34 -10 14 C-9.67 12.02 -9.34 10.04 -9 8 C-9.99 8.33 -10.98 8.66 -12 9 C-10.92598892 6.08482708 -10.22189824 4.22189824 -8 2 C-8 2.99 -8 3.98 -8 5 C-6.68 5 -5.36 5 -4 5 C-1.83656989 2.96731398 -1.83656989 2.96731398 0 0 Z " fill="#304A6B" transform="translate(308,202)"/>
<path d="M0 0 C3.3 0 6.6 0 10 0 C10.33 1.32 10.66 2.64 11 4 C10 5 10 5 7.4375 5.0625 C6.2309375 5.0315625 6.2309375 5.0315625 5 5 C4.34 6.32 3.68 7.64 3 9 C2.34 8.34 1.68 7.68 1 7 C0.67 7 0.34 7 0 7 C0 4.69 0 2.38 0 0 Z " fill="#34515E" transform="translate(264,314)"/>
<path d="M0 0 C0.33 0 0.66 0 1 0 C1 5.28 1 10.56 1 16 C3.475 16.99 3.475 16.99 6 18 C6 18.99 6 19.98 6 21 C3.69 21 1.38 21 -1 21 C-1.02888146 17.68751813 -1.04675799 14.37506833 -1.0625 11.0625 C-1.07087891 10.11697266 -1.07925781 9.17144531 -1.08789062 8.19726562 C-1.09111328 7.29814453 -1.09433594 6.39902344 -1.09765625 5.47265625 C-1.10289307 4.64000244 -1.10812988 3.80734863 -1.11352539 2.94946289 C-1 1 -1 1 0 0 Z " fill="#022442" transform="translate(262,281)"/>
<path d="M0 0 C0.99 0.495 0.99 0.495 2 1 C1.67 9.58 1.34 18.16 1 27 C5.62 27 10.24 27 15 27 C15 25.68 15 24.36 15 23 C15.66 23 16.32 23 17 23 C17 24.65 17 26.3 17 28 C13.9042768 29.5478616 10.73495602 28.83182026 7.375 28.5625 C4.94125 28.376875 2.5075 28.19125 0 28 C0 18.76 0 9.52 0 0 Z " fill="#5A7E94" transform="translate(226,275)"/>
<path d="M0 0 C-2.54601692 2.99531402 -5.34468457 4.24004049 -8.9375 5.75 C-9.97777344 6.19859375 -11.01804687 6.6471875 -12.08984375 7.109375 C-15.01053455 8.003224 -16.21256554 8.10154037 -19 7 C-17.35 6.34 -15.7 5.68 -14 5 C-14 4.67 -14 4.34 -14 4 C-12.35 4 -10.7 4 -9 4 C-9.99 3.67 -10.98 3.34 -12 3 C-12 2.34 -12 1.68 -12 1 C-7.67978289 -2.66563876 -5.10305982 -1.90113993 0 0 Z " fill="#26416C" transform="translate(313,241)"/>
<path d="M0 0 C0.66 0 1.32 0 2 0 C2 0.66 2 1.32 2 2 C2.99 2.66 3.98 3.32 5 4 C4.01 4.33 3.02 4.66 2 5 C2.33 7.64 2.66 10.28 3 13 C2.34 13 1.68 13 1 13 C1 12.34 1 11.68 1 11 C0.34 11 -0.32 11 -1 11 C-1.33 11.99 -1.66 12.98 -2 14 C-3.53214888 10.93570224 -3.22938548 8.3834358 -3 5 C-1.625 2.0625 -1.625 2.0625 0 0 Z " fill="#567585" transform="translate(235,316)"/>
<path d="M0 0 C2 2 2 2 2.1953125 3.9453125 C2.13020833 5.96354167 2.06510417 7.98177083 2 10 C1.34 10 0.68 10 0 10 C-0.33 10.99 -0.66 11.98 -1 13 C-1.66 13 -2.32 13 -3 13 C-3.76173392 8.6835078 -4.16063604 5.25566547 -3 1 C-2.01 0.67 -1.02 0.34 0 0 Z " fill="#04234D" transform="translate(295,285)"/>
<path d="M0 0 C0.99 0 1.98 0 3 0 C2.39009109 3.55780196 1.4216319 6.6828589 0 10 C-2.97 9.505 -2.97 9.505 -6 9 C-6 9.66 -6 10.32 -6 11 C-6.66 10.67 -7.32 10.34 -8 10 C-6.7260411 7.96166576 -5.38938077 5.96147874 -4 4 C-3.34 4 -2.68 4 -2 4 C-1.34 2.68 -0.68 1.36 0 0 Z " fill="#2A4765" transform="translate(342,161)"/>
<path d="M0 0 C3.08539112 2.72412697 5.11188908 6.09188781 7.25 9.5625 C7.81460938 10.44711914 7.81460938 10.44711914 8.390625 11.34960938 C9.3260331 12.86105004 10.17093646 14.42771031 11 16 C10.67 16.66 10.34 17.32 10 18 C9.34 17.34 8.68 16.68 8 16 C7.34 16.66 6.68 17.32 6 18 C6 16.68 6 15.36 6 14 C5.34 14 4.68 14 4 14 C3.690625 13.05125 3.38125 12.1025 3.0625 11.125 C2.12605258 8.13919592 2.12605258 8.13919592 1 6 C1.33 5.34 1.66 4.68 2 4 C1.34 4 0.68 4 0 4 C0 2.68 0 1.36 0 0 Z " fill="#455F7D" transform="translate(220,149)"/>
<path d="M0 0 C3.625 0.375 3.625 0.375 7 1 C6.34 1.66 5.68 2.32 5 3 C5.32041397 5.60280568 5.32041397 5.60280568 6 8 C4.68 7.34 3.36 6.68 2 6 C1.01 7.485 1.01 7.485 0 9 C-1.32 8.67 -2.64 8.34 -4 8 C-2.25 2.25 -2.25 2.25 0 0 Z " fill="#5C7C87" transform="translate(310,314)"/>
<path d="M0 0 C2.31 0 4.62 0 7 0 C8.13016601 5.02296004 7.77916092 8.97874074 7 14 C6.34 14 5.68 14 5 14 C4.34 11.03 3.68 8.06 3 5 C2.34 5 1.68 5 1 5 C0.67 3.35 0.34 1.7 0 0 Z " fill="#0B294D" transform="translate(146,276)"/>
<path d="M0 0 C1.51400391 0.01740234 1.51400391 0.01740234 3.05859375 0.03515625 C4.07050781 0.04417969 5.08242187 0.05320312 6.125 0.0625 C7.29869141 0.07990234 7.29869141 0.07990234 8.49609375 0.09765625 C8.82609375 1.74765625 9.15609375 3.39765625 9.49609375 5.09765625 C6.19609375 4.76765625 2.89609375 4.43765625 -0.50390625 4.09765625 C-0.83390625 5.08765625 -1.16390625 6.07765625 -1.50390625 7.09765625 C-2.16390625 5.11765625 -2.82390625 3.13765625 -3.50390625 1.09765625 C-2.50390625 0.09765625 -2.50390625 0.09765625 0 0 Z " fill="#031F46" transform="translate(194.50390625,276.90234375)"/>
<path d="M0 0 C1.49821059 3.37097383 2 5.20442119 2 9 C-1.01031744 9.93423645 -1.86650268 10.04449911 -5 9 C-4.4140625 2.84765625 -4.4140625 2.84765625 -4 1 C-2 0 -2 0 0 0 Z " fill="#042658" transform="translate(269,174)"/>
<path d="M0 0 C2.5625 1.5625 2.5625 1.5625 5 4 C5.10267658 9.54453543 3.21741307 12.74471174 0 17 C-0.99 16.01 -1.98 15.02 -3 14 C-2.34 12.35 -1.68 10.7 -1 9 C0.32 9.33 1.64 9.66 3 10 C3 8.68 3 7.36 3 6 C2.01 5.67 1.02 5.34 0 5 C0 3.35 0 1.7 0 0 Z " fill="#19385C" transform="translate(291,150)"/>
<path d="M0 0 C0.33 0.99 0.66 1.98 1 3 C1.99 3 2.98 3 4 3 C4 4.32 4 5.64 4 7 C4.99 6.67 5.98 6.34 7 6 C7.33 6.66 7.66 7.32 8 8 C7.0409375 8.61875 7.0409375 8.61875 6.0625 9.25 C3.79009069 11.17810487 3.39803561 12.11424181 3 15 C-0.77755334 10.27805833 -0.30096975 5.74071928 0 0 Z " fill="#0F3058" transform="translate(185,284)"/>
<path d="M0 0 C0.99 3.3 1.98 6.6 3 10 C2.01 10.66 1.02 11.32 0 12 C0.33 10.35 0.66 8.7 1 7 C0.01 7.33 -0.98 7.66 -2 8 C-2.66 7.67 -3.32 7.34 -4 7 C-4.33 7.66 -4.66 8.32 -5 9 C-5.1875 5.625 -5.1875 5.625 -5 2 C-2 0 -2 0 0 0 Z " fill="#062651" transform="translate(210,283)"/>
<path d="M0 0 C0 0.66 0 1.32 0 2 C0.66 2.33 1.32 2.66 2 3 C2 3.99 2 4.98 2 6 C-1.63 6 -5.26 6 -9 6 C-9 5.34 -9 4.68 -9 4 C-8.01 3.67 -7.02 3.34 -6 3 C-6.33 2.34 -6.66 1.68 -7 1 C-4.50935112 0.31292445 -2.62113708 0 0 0 Z " fill="#07254B" transform="translate(374,296)"/>
<path d="M0 0 C0.33 0.66 0.66 1.32 1 2 C5.455 1.505 5.455 1.505 10 1 C9.67 2.65 9.34 4.3 9 6 C6.03 6 3.06 6 0 6 C0 4.02 0 2.04 0 0 Z " fill="#1E3B5D" transform="translate(310,297)"/>
<path d="M0 0 C0.99 0.66 1.98 1.32 3 2 C2.34 2 1.68 2 1 2 C1 2.66 1 3.32 1 4 C2.32 4.33 3.64 4.66 5 5 C4.01 5.66 3.02 6.32 2 7 C1.26393501 10.56769552 1.26393501 10.56769552 1 14 C0.67 14 0.34 14 0 14 C-0.12375 13.195625 -0.2475 12.39125 -0.375 11.5625 C-0.684375 10.2940625 -0.684375 10.2940625 -1 9 C-1.66 8.67 -2.32 8.34 -3 8 C-3.33 8.66 -3.66 9.32 -4 10 C-3.5205537 5.78087253 -2.83374881 3.20336822 0 0 Z " fill="#5C8090" transform="translate(336,314)"/>
<path d="M0 0 C0.99 0.495 0.99 0.495 2 1 C2.6328125 3.06640625 2.6328125 3.06640625 3.125 5.5625 C3.29257813 6.38878906 3.46015625 7.21507812 3.6328125 8.06640625 C3.75398437 8.70449219 3.87515625 9.34257812 4 10 C5.32 10.33 6.64 10.66 8 11 C7.01 12.485 7.01 12.485 6 14 C4.02 13.34 2.04 12.68 0 12 C0 8 0 4 0 0 Z " fill="#05234C" transform="translate(156,287)"/>
<path d="M0 0 C2.31 0 4.62 0 7 0 C7.33 0.99 7.66 1.98 8 3 C8.99 2.67 9.98 2.34 11 2 C11 2.66 11 3.32 11 4 C10.01 4 9.02 4 8 4 C7.67 4.66 7.34 5.32 7 6 C6.67 5.67 6.34 5.34 6 5 C5.67 5.66 5.34 6.32 5 7 C2.525 6.01 2.525 6.01 0 5 C0 3.35 0 1.7 0 0 Z " fill="#09285A" transform="translate(260,277)"/>
<path d="M0 0 C2.31 0 4.62 0 7 0 C7.92188461 2.76565382 8.11785222 4.38283702 8.09765625 7.23046875 C8.09443359 8.03291016 8.09121094 8.83535156 8.08789062 9.66210938 C8.07532227 10.91217773 8.07532227 10.91217773 8.0625 12.1875 C8.05798828 13.03248047 8.05347656 13.87746094 8.04882812 14.74804688 C8.03705403 16.83206155 8.0191189 18.91603977 8 21 C7.67 21 7.34 21 7 21 C6.96261719 20.11957031 6.92523438 19.23914063 6.88671875 18.33203125 C6.82097656 17.17058594 6.75523437 16.00914062 6.6875 14.8125 C6.60048828 13.08966797 6.60048828 13.08966797 6.51171875 11.33203125 C5.96970037 7.80270545 5.16761091 5.81634957 3 3 C2.01 2.67 1.02 2.34 0 2 C0 1.34 0 0.68 0 0 Z " fill="#1E6382" transform="translate(339,275)"/>
<path d="M0 0 C4 4.625 4 4.625 4 8 C3.34 7.67 2.68 7.34 2 7 C-0.37221956 6.49864801 -0.37221956 6.49864801 -3 7 C-5.81331378 9.39583651 -5.81331378 9.39583651 -8 12 C-8 8.45595664 -7.39010515 7.89732095 -5.125 5.3125 C-4.59132813 4.68988281 -4.05765625 4.06726563 -3.5078125 3.42578125 C-2 2 -2 2 0 2 C0 1.34 0 0.68 0 0 Z " fill="#3F637C" transform="translate(282,140)"/>
<path d="M0 0 C4.92804926 2.71545571 9.50655364 5.60698948 14 9 C14 9.33 14 9.66 14 10 C11.625 10.125 11.625 10.125 9 10 C8.34 9.34 7.68 8.68 7 8 C4.42938689 7.35232207 4.42938689 7.35232207 2 7 C2 5.35 2 3.7 2 2 C1.34 2 0.68 2 0 2 C0 1.34 0 0.68 0 0 Z " fill="#294A67" transform="translate(309,116)"/>
<path d="M0 0 C0.66 0 1.32 0 2 0 C2.66 4.29 3.32 8.58 4 13 C2.68 13.33 1.36 13.66 0 14 C0 9.38 0 4.76 0 0 Z " fill="#0D2D3E" transform="translate(204,320)"/>
<path d="M0 0 C1.32 0 2.64 0 4 0 C4 0.99 4 1.98 4 3 C7.465 2.505 7.465 2.505 11 2 C10.67 3.32 10.34 4.64 10 6 C8.52093108 6.02689216 7.04172517 6.04634621 5.5625 6.0625 C4.32693359 6.07990234 4.32693359 6.07990234 3.06640625 6.09765625 C1 6 1 6 0 5 C-0.04063832 3.33382885 -0.042721 1.66611905 0 0 Z " fill="#17315D" transform="translate(361,284)"/>
<path d="M0 0 C1.48828125 1.30078125 1.48828125 1.30078125 3 3 C3.1875 6.1875 3.1875 6.1875 3 9 C3.99 9.33 4.98 9.66 6 10 C7.98511244 12.67990179 8.01340927 13.88378631 7.625 17.25 C7.315625 18.61125 7.315625 18.61125 7 20 C2.78185788 13.67278681 1.26664797 7.40616521 0 0 Z " fill="#3B5778" transform="translate(148,281)"/>
<path d="M0 0 C0.99 0 1.98 0 3 0 C3 2.97 3 5.94 3 9 C0 9 0 9 -2 8 C-2.99 9.32 -3.98 10.64 -5 12 C-5.25 9.75 -5.25 9.75 -5 7 C-3.0625 4.875 -3.0625 4.875 -1 3 C-0.67 2.01 -0.34 1.02 0 0 Z " fill="#072551" transform="translate(167,279)"/>
<path d="M0 0 C6.93359375 -0.09765625 6.93359375 -0.09765625 9 0 C10 1 10 1 10.0625 3.5625 C10.041875 4.366875 10.02125 5.17125 10 6 C9.566875 5.360625 9.13375 4.72125 8.6875 4.0625 C7.08760823 1.73253997 7.08760823 1.73253997 4 1 C4.33 2.65 4.66 4.3 5 6 C4.34 6 3.68 6 3 6 C2.67 7.32 2.34 8.64 2 10 C1.34 6.7 0.68 3.4 0 0 Z " fill="#4F738A" transform="translate(286,275)"/>
<path d="M0 0 C0.99 0.33 1.98 0.66 3 1 C3 2.65 3 4.3 3 6 C5.475 6.99 5.475 6.99 8 8 C5 9 5 9 3 9 C3.33 9.66 3.66 10.32 4 11 C1 10 1 10 -1 7 C-0.625 3.3125 -0.625 3.3125 0 0 Z " fill="#3B5F71" transform="translate(333,322)"/>
<path d="M0 0 C1.32 0 2.64 0 4 0 C3.52034261 4.55674518 3.52034261 4.55674518 1.3125 6.4375 C-1.92231933 7.22434795 -3.97776483 6.23636893 -7 5 C-6.67 4.34 -6.34 3.68 -6 3 C-4.35 3 -2.7 3 -1 3 C-0.67 2.01 -0.34 1.02 0 0 Z " fill="#51747F" transform="translate(246,326)"/>
<path d="M0 0 C1.67542976 0.28604898 3.34385343 0.61781233 5 1 C4.34 1.66 3.68 2.32 3 3 C2.01 2.67 1.02 2.34 0 2 C0 9.92 0 17.84 0 26 C0.66 26.33 1.32 26.66 2 27 C1.01 27 0.02 27 -1 27 C-1.02886537 22.68751391 -1.04675255 18.37505238 -1.0625 14.0625 C-1.07087891 12.83080078 -1.07925781 11.59910156 -1.08789062 10.33007812 C-1.09111328 9.16025391 -1.09433594 7.99042969 -1.09765625 6.78515625 C-1.10289307 5.70113525 -1.10812988 4.61711426 -1.11352539 3.50024414 C-1 1 -1 1 0 0 Z " fill="#012040" transform="translate(228,275)"/>
<path d="M0 0 C1.98 0.66 3.96 1.32 6 2 C6 2.66 6 3.32 6 4 C5.01 4 4.02 4 3 4 C3 4.66 3 5.32 3 6 C1.14375 5.9690625 1.14375 5.9690625 -0.75 5.9375 C-3.6640825 5.93233319 -6.20953327 6.06984442 -9 7 C-9 6.01 -9 5.02 -9 4 C-1.25 3.875 -1.25 3.875 1 5 C0.67 3.35 0.34 1.7 0 0 Z " fill="#07244F" transform="translate(203,277)"/>
<path d="M0 0 C0.66 0.33 1.32 0.66 2 1 C0.89718873 2.27200971 -0.20730769 3.54255853 -1.3125 4.8125 C-1.92738281 5.52019531 -2.54226563 6.22789062 -3.17578125 6.95703125 C-4.73334335 8.70136739 -6.32658875 10.36778041 -8 12 C-8.99 11.67 -9.98 11.34 -11 11 C-10.01 10.67 -9.02 10.34 -8 10 C-7.67 8.35 -7.34 6.7 -7 5 C-6.01 5.33 -5.02 5.66 -4 6 C-4 4.68 -4 3.36 -4 2 C-2.68 2 -1.36 2 0 2 C0 1.34 0 0.68 0 0 Z " fill="#476786" transform="translate(331,223)"/>
<path d="M0 0 C0.99 0 1.98 0 3 0 C3.66 1.65 4.32 3.3 5 5 C4.01 5.66 3.02 6.32 2 7 C2 7.99 2 8.98 2 10 C1.01 10.33 0.02 10.66 -1 11 C-1 10.01 -1 9.02 -1 8 C-1.66 8 -2.32 8 -3 8 C-2.5359375 7.13375 -2.5359375 7.13375 -2.0625 6.25 C-1.07416636 4.15705816 -0.4831387 2.25464725 0 0 Z " fill="#092240" transform="translate(291,219)"/>
<path d="M0 0 C1.65 0.33 3.3 0.66 5 1 C5 2.98 5 4.96 5 7 C3.35 7.66 1.7 8.32 0 9 C-0.33 7.68 -0.66 6.36 -1 5 C-0.34 5 0.32 5 1 5 C0.67 3.35 0.34 1.7 0 0 Z " fill="#05264B" transform="translate(290,276)"/>
<path d="M0 0 C0.33 0 0.66 0 1 0 C1 2.31 1 4.62 1 7 C1.66 7 2.32 7 3 7 C2.67 7.99 2.34 8.98 2 10 C1.34 10 0.68 10 0 10 C0 16.27 0 22.54 0 29 C-0.33 29 -0.66 29 -1 29 C-1.02927632 25.47918442 -1.04689119 21.95840061 -1.0625 18.4375 C-1.07087891 17.44685547 -1.07925781 16.45621094 -1.08789062 15.43554688 C-1.10536914 10.17451301 -0.92308398 5.18235335 0 0 Z " fill="#315470" transform="translate(204,162)"/>
<path d="M0 0 C4.6875 3.515625 4.6875 3.515625 6 5 C6 6.32 6 7.64 6 9 C3.36 9.33 0.72 9.66 -2 10 C-1.01 9.67 -0.02 9.34 1 9 C0.835 7.88625 0.67 6.7725 0.5 5.625 C0 2 0 2 0 0 Z " fill="#48677C" transform="translate(323,126)"/>
<path d="M0 0 C0.33 0 0.66 0 1 0 C1.02505615 0.62567871 1.0501123 1.25135742 1.07592773 1.89599609 C1.19175273 4.72254619 1.31453985 7.54875169 1.4375 10.375 C1.47681641 11.35984375 1.51613281 12.3446875 1.55664062 13.359375 C1.59853516 14.30039062 1.64042969 15.24140625 1.68359375 16.2109375 C1.72025146 17.08024902 1.75690918 17.94956055 1.79467773 18.84521484 C1.87401544 21.0483262 1.87401544 21.0483262 3 23 C5.52733235 23.65555119 5.52733235 23.65555119 8 24 C8 24.33 8 24.66 8 25 C5.69 25.33 3.38 25.66 1 26 C-0.30475618 23.39048764 -0.11301572 21.47298715 -0.09765625 18.5546875 C-0.09443359 17.47832031 -0.09121094 16.40195312 -0.08789062 15.29296875 C-0.07951172 14.16503906 -0.07113281 13.03710938 -0.0625 11.875 C-0.05798828 10.73933594 -0.05347656 9.60367187 -0.04882812 8.43359375 C-0.03701615 5.62234362 -0.02054507 2.8111977 0 0 Z " fill="#31545C" transform="translate(338,278)"/>
<path d="M0 0 C0 7.77777778 0 7.77777778 -2 11 C-2.99 11.495 -2.99 11.495 -4 12 C-3.67 10.68 -3.34 9.36 -3 8 C-3.45375 8.495 -3.9075 8.99 -4.375 9.5 C-6 11 -6 11 -8 11 C-6.63629701 8.00779732 -5.05091917 5.70973471 -2.875 3.25 C-2.33617187 2.63640625 -1.79734375 2.0228125 -1.2421875 1.390625 C-0.62730469 0.70226562 -0.62730469 0.70226562 0 0 Z " fill="#3C5D82" transform="translate(224,128)"/>
<path d="M0 0 C2.64 0 5.28 0 8 0 C7.67 0.66 7.34 1.32 7 2 C5.35 1.67 3.7 1.34 2 1 C2 2.32 2 3.64 2 5 C3.98 5 5.96 5 8 5 C8 6.32 8 7.64 8 9 C5.36 9 2.72 9 0 9 C0 8.67 0 8.34 0 8 C1.98 7.67 3.96 7.34 6 7 C4.02 6.34 2.04 5.68 0 5 C0 3.35 0 1.7 0 0 Z " fill="#284D5D" transform="translate(266,325)"/>
<path d="M0 0 C2.80041057 5.00073317 4.34821126 10.25451416 4 16 C3.71125 15.401875 3.4225 14.80375 3.125 14.1875 C1.95257974 11.80672208 1.95257974 11.80672208 0 9 C-0.66 9 -1.32 9 -2 9 C-2.25 3.375 -2.25 3.375 0 0 Z " fill="#527693" transform="translate(311,277)"/>
<path d="M0 0 C2.97 0.33 5.94 0.66 9 1 C8.01 1.33 7.02 1.66 6 2 C5.26676204 4.01508358 5.26676204 4.01508358 5 6 C5.99 6.33 6.98 6.66 8 7 C7.67 8.32 7.34 9.64 7 11 C4.5 9.75 4.5 9.75 2 8 C2 4 2 4 3.5 2.25 C3.995 1.8375 4.49 1.425 5 1 C3.35 1 1.7 1 0 1 C0 0.67 0 0.34 0 0 Z " fill="#435F82" transform="translate(367,274)"/>
<path d="M0 0 C0.99 0.33 1.98 0.66 3 1 C2.814375 2.0725 2.62875 3.145 2.4375 4.25 C2.0695432 7.40391546 1.95534657 9.09818492 3 12 C2.34 11.67 1.68 11.34 1 11 C1 10.34 1 9.68 1 9 C0.01 8.67 -0.98 8.34 -2 8 C-2.6875 5.6875 -2.6875 5.6875 -3 3 C-1.5625 1.1875 -1.5625 1.1875 0 0 Z " fill="#072650" transform="translate(273,155)"/>
<path d="M0 0 C2.6067421 1.30337105 3.19673612 2.72756906 4.625 5.25 C5.07101563 6.01828125 5.51703125 6.7865625 5.9765625 7.578125 C7.10346743 10.24484659 7.19303612 12.13493763 7 15 C4.09650135 13.29029522 3.10978162 12.3059958 1.953125 9.08203125 C1.60507813 7.46361328 1.60507813 7.46361328 1.25 5.8125 C0.88648438 4.18248047 0.88648438 4.18248047 0.515625 2.51953125 C0.34546875 1.68808594 0.1753125 0.85664063 0 0 Z " fill="#395D75" transform="translate(240,183)"/>
<path d="M0 0 C0.66 0 1.32 0 2 0 C2 0.66 2 1.32 2 2 C2.78375 1.814375 3.5675 1.62875 4.375 1.4375 C7 1 7 1 9 2 C8.34 3.98 7.68 5.96 7 8 C6.01 8 5.02 8 4 8 C2.68 5.36 1.36 2.72 0 0 Z " fill="#4A647C" transform="translate(276,174)"/>
<path d="M0 0 C0.99 0.33 1.98 0.66 3 1 C3.33 2.65 3.66 4.3 4 6 C3.34 6 2.68 6 2 6 C2 7.65 2 9.3 2 11 C1.01 10.67 0.02 10.34 -1 10 C-1.33 10.99 -1.66 11.98 -2 13 C-1.85769192 11.58297487 -1.71099254 10.1663904 -1.5625 8.75 C-1.48128906 7.96109375 -1.40007812 7.1721875 -1.31640625 6.359375 C-1.02365007 4.17635361 -0.57935581 2.1226818 0 0 Z " fill="#3A5D7D" transform="translate(317,275)"/>
<path d="M0 0 C2.4294516 3.6441774 2.16179575 5.71241272 2 10 C1.01 10.33 0.02 10.66 -1 11 C-1 10.01 -1 9.02 -1 8 C-1.99 8 -2.98 8 -4 8 C-2.87548273 5.0280615 -1.77706209 2.66559313 0 0 Z " fill="#294560" transform="translate(295,211)"/>
<path d="M0 0 C0 0.66 0 1.32 0 2 C3.63 2 7.26 2 11 2 C11 2.33 11 2.66 11 3 C4.73 3 -1.54 3 -8 3 C-8 2.34 -8 1.68 -8 1 C-5.29120665 -0.35439668 -2.99066732 -0.06501451 0 0 Z " fill="#5F798D" transform="translate(302,143)"/>
<path d="M0 0 C1.42505859 0.02513672 1.42505859 0.02513672 2.87890625 0.05078125 C3.82636719 0.05464844 4.77382812 0.05851563 5.75 0.0625 C8.44140625 0.36328125 8.44140625 0.36328125 12.44140625 2.36328125 C6.50140625 2.69328125 0.56140625 3.02328125 -5.55859375 3.36328125 C-2.55859375 0.36328125 -2.55859375 0.36328125 0 0 Z " fill="#446785" transform="translate(226.55859375,143.63671875)"/>
<path d="M0 0 C0 0.66 0 1.32 0 2 C-3.63 2.66 -7.26 3.32 -11 4 C-11.33 4.99 -11.66 5.98 -12 7 C-12.66 5.35 -13.32 3.7 -14 2 C-9.15758367 0.66416101 -5.06562383 -0.25328119 0 0 Z " fill="#24426A" transform="translate(231,142)"/>
<path d="M0 0 C-0.99 0.33 -1.98 0.66 -3 1 C-3.66 1.66 -4.32 2.32 -5 3 C-5.66 2.67 -6.32 2.34 -7 2 C-7.33 2.99 -7.66 3.98 -8 5 C-9.98 5 -11.96 5 -14 5 C-14.33 5.66 -14.66 6.32 -15 7 C-15 6.01 -15 5.02 -15 4 C-14.01 4 -13.02 4 -12 4 C-12 3.34 -12 2.68 -12 2 C-10.75579353 1.4654744 -9.50429064 0.94791389 -8.25 0.4375 C-7.55390625 0.14746094 -6.8578125 -0.14257812 -6.140625 -0.44140625 C-3.69987216 -1.07831803 -2.3596345 -0.80248831 0 0 Z " fill="#011F43" transform="translate(256,113)"/>
<path d="M0 0 C4.29 0 8.58 0 13 0 C13 2.31 13 4.62 13 7 C9.7169902 8.6415049 6.57454967 7.51888624 3 7 C3 6.67 3 6.34 3 6 C5.64 6 8.28 6 11 6 C11.33 4.35 11.66 2.7 12 1 C8.04 1 4.08 1 0 1 C0 0.67 0 0.34 0 0 Z " fill="#6D8EA2" transform="translate(399,275)"/>
<path d="M0 0 C1.2065625 0.0309375 1.2065625 0.0309375 2.4375 0.0625 C2.1075 1.3825 1.7775 2.7025 1.4375 4.0625 C0.7775 3.7325 0.1175 3.4025 -0.5625 3.0625 C-0.2325 4.0525 0.0975 5.0425 0.4375 6.0625 C-1.5625 8.0625 -1.5625 8.0625 -4.5625 9.0625 C-4.2325 7.7425 -3.9025 6.4225 -3.5625 5.0625 C-2.9025 5.3925 -2.2425 5.7225 -1.5625 6.0625 C-2.2225 4.4125 -2.8825 2.7625 -3.5625 1.0625 C-2.5625 0.0625 -2.5625 0.0625 0 0 Z " fill="#07284D" transform="translate(322.5625,274.9375)"/>
<path d="M0 0 C0.99 0.33 1.98 0.66 3 1 C3.33 2.98 3.66 4.96 4 7 C2.35 7.33 0.7 7.66 -1 8 C-1.66 6.68 -2.32 5.36 -3 4 C-2.34 4 -1.68 4 -1 4 C-0.67 2.68 -0.34 1.36 0 0 Z " fill="#0A2C53" transform="translate(273,191)"/>
<path d="M0 0 C0.33 0.66 0.66 1.32 1 2 C0.67 2.66 0.34 3.32 0 4 C1.32 3.67 2.64 3.34 4 3 C3.67 3.66 3.34 4.32 3 5 C2.01 5 1.02 5 0 5 C-0.33 5.66 -0.66 6.32 -1 7 C-2.65 6.67 -4.3 6.34 -6 6 C-2.25 1.125 -2.25 1.125 0 0 Z M-4 7 C-3.67 7.99 -3.34 8.98 -3 10 C-3.66 10 -4.32 10 -5 10 C-4.67 9.01 -4.34 8.02 -4 7 Z " fill="#2E5076" transform="translate(231,122)"/>
<path d="M0 0 C-3.29178861 3.29178861 -6.38283741 3.45886392 -10.8046875 3.81640625 C-13.25320988 4.02117592 -15.6045929 4.45910162 -18 5 C-15.11550348 2.6229612 -12.57662226 1.31862494 -9 0.25 C-8.154375 -0.01296875 -7.30875 -0.2759375 -6.4375 -0.546875 C-3.8907775 -1.02030418 -2.4249914 -0.83078409 0 0 Z " fill="#68839E" transform="translate(262,110)"/>
<path d="M0 0 C0.66 0.33 1.32 0.66 2 1 C1.67 3.31 1.34 5.62 1 8 C-1.64 8.66 -4.28 9.32 -7 10 C-7.33 9.01 -7.66 8.02 -8 7 C-4.71303767 6.20046862 -3.28976808 5.90341064 0 7 C0 4.69 0 2.38 0 0 Z " fill="#5A7681" transform="translate(170,325)"/>
<path d="M0 0 C-0.33 0.99 -0.66 1.98 -1 3 C-0.11680706 6.15020361 -0.11680706 6.15020361 1 9 C-0.65 8.67 -2.3 8.34 -4 8 C-4.33 6.02 -4.66 4.04 -5 2 C-2 0 -2 0 0 0 Z " fill="#06224C" transform="translate(193,292)"/>
<path d="M0 0 C2.81962189 2.81962189 2.99187071 3.52850122 3.0625 7.625 C3.041875 8.73875 3.02125 9.8525 3 11 C0.03595495 8.19195732 -2.44499019 5.81684226 -4 2 C-2.68 1.34 -1.36 0.68 0 0 Z " fill="#29466F" transform="translate(219,218)"/>
<path d="M0 0 C0.66 0.99 1.32 1.98 2 3 C1.67 3.66 1.34 4.32 1 5 C0.34 5 -0.32 5 -1 5 C-1.66 6.32 -2.32 7.64 -3 9 C-3.99 8.01 -4.98 7.02 -6 6 C-2.25 1.125 -2.25 1.125 0 0 Z " fill="#0D2A50" transform="translate(306,200)"/>
<path d="M0 0 C0 3.10551666 -0.5393715 4.35261084 -2 7 C-3.65 6.67 -5.3 6.34 -7 6 C-6.875 4.125 -6.875 4.125 -6 2 C-2.9375 0.75 -2.9375 0.75 0 0 Z " fill="#3E6176" transform="translate(280,196)"/>
<path d="M0 0 C0.33 0.66 0.66 1.32 1 2 C0.01 3.485 0.01 3.485 -1 5 C-1.66 5 -2.32 5 -3 5 C-3 4.34 -3 3.68 -3 3 C-4.670625 3.061875 -4.670625 3.061875 -6.375 3.125 C-10 3 -10 3 -12 1 C-7.95858806 0.36605303 -4.0934693 -0.12404452 0 0 Z " fill="#244258" transform="translate(355,134)"/>
<path d="M0 0 C0 2.33333333 0 4.66666667 0 7 C-2.4375 6.3125 -2.4375 6.3125 -5 5 C-5.8125 2.375 -5.8125 2.375 -6 0 C-3 -1 -3 -1 0 0 Z " fill="#03244F" transform="translate(239,234)"/>
<path d="M0 0 C0.66 0.33 1.32 0.66 2 1 C-0.97 5.29 -3.94 9.58 -7 14 C-8 11 -8 11 -7.25 8.875 C-6 7 -6 7 -3 6 C-2.814375 4.7934375 -2.814375 4.7934375 -2.625 3.5625 C-2.41875 2.716875 -2.2125 1.87125 -2 1 C-1.34 0.67 -0.68 0.34 0 0 Z " fill="#456B7F" transform="translate(326,175)"/>
<path d="M0 0 C1.78409802 3.06246747 2.22880021 5.22079273 2.125 8.75 C2.10695313 9.54921875 2.08890625 10.3484375 2.0703125 11.171875 C2.03550781 12.07679688 2.03550781 12.07679688 2 13 C1.34 13 0.68 13 0 13 C-1.44977894 10.65887549 -2.04314411 9.4203071 -1.7578125 6.640625 C-1.54898437 5.85171875 -1.34015625 5.0628125 -1.125 4.25 C-0.92132813 3.45078125 -0.71765625 2.6515625 -0.5078125 1.828125 C-0.34023438 1.22484375 -0.17265625 0.6215625 0 0 Z " fill="#1F6F88" transform="translate(346,171)"/>
<path d="M0 0 C2.475 0.99 2.475 0.99 5 2 C4.67 4.31 4.34 6.62 4 9 C3.01 8.67 2.02 8.34 1 8 C1 7.34 1 6.68 1 6 C0.34 6 -0.32 6 -1 6 C-1.042721 4.33388095 -1.04063832 2.66617115 -1 1 C-0.67 0.67 -0.34 0.34 0 0 Z " fill="#042449" transform="translate(277,168)"/>
<path d="M0 0 C0.33 0.66 0.66 1.32 1 2 C0.34 2 -0.32 2 -1 2 C-1.226875 2.5775 -1.45375 3.155 -1.6875 3.75 C-3.33038023 6.5663661 -5.39533227 8.08077114 -8 10 C-8 8.68 -8 7.36 -8 6 C-6.68 5.67 -5.36 5.34 -4 5 C-4 3.68 -4 2.36 -4 1 C-2.68 0.67 -1.36 0.34 0 0 Z " fill="#33516F" transform="translate(277,139)"/>
<path d="M0 0 C0.99 0 1.98 0 3 0 C2.58578031 4.83256305 0.53586014 6.82679218 -3 10 C-3 8.35 -3 6.7 -3 5 C-2.34 5 -1.68 5 -1 5 C-1.33 4.01 -1.66 3.02 -2 2 C-1.34 2 -0.68 2 0 2 C0 1.34 0 0.68 0 0 Z " fill="#294963" transform="translate(346,143)"/>
<path d="M0 0 C-3 2 -3 2 -7 2 C-7.33 2.99 -7.66 3.98 -8 5 C-10.97 4.505 -10.97 4.505 -14 4 C-14 3.34 -14 2.68 -14 2 C-9.15758367 0.66416101 -5.06562383 -0.25328119 0 0 Z " fill="#436380" transform="translate(342,136)"/>
<path d="M0 0 C1.258125 0.12375 2.51625 0.2475 3.8125 0.375 C4.87404297 0.47941406 4.87404297 0.47941406 5.95703125 0.5859375 C8 1 8 1 11 3 C5.06 3 -0.88 3 -7 3 C-7.33 2.34 -7.66 1.68 -8 1 C-5.36 1 -2.72 1 0 1 C0 0.67 0 0.34 0 0 Z " fill="#426984" transform="translate(288,109)"/>
<path d="M0 0 C1 3 1 3 -0.125 5.5625 C-2.23794891 8.30933359 -3.72518425 9.02640613 -7 10 C-6.67 8.68 -6.34 7.36 -6 6 C-5.34 6 -4.68 6 -4 6 C-3.896875 5.38125 -3.79375 4.7625 -3.6875 4.125 C-3 2 -3 2 0 0 Z " fill="#042145" transform="translate(309,205)"/>
<path d="M0 0 C0.33 0 0.66 0 1 0 C1.33 2.31 1.66 4.62 2 7 C0.33333333 7 -1.33333333 7 -3 7 C-3.33 8.32 -3.66 9.64 -4 11 C-4.66 11 -5.32 11 -6 11 C-4.55007731 6.89188572 -2.54592427 3.53144334 0 0 Z " fill="#50728C" transform="translate(307,190)"/>
<path d="M0 0 C3.81300782 3.2870757 5.22972246 6.39727838 7 11 C5.68 10.67 4.36 10.34 3 10 C2.67 8.35 2.34 6.7 2 5 C1.01 5.66 0.02 6.32 -1 7 C-1.33 5.68 -1.66 4.36 -2 3 C-1.34 2.67 -0.68 2.34 0 2 C0 1.34 0 0.68 0 0 Z " fill="#486581" transform="translate(264,162)"/>
<path d="M0 0 C3.82097239 0.53069061 6.06171403 1.49701566 9 4 C7.8553125 4.2165625 7.8553125 4.2165625 6.6875 4.4375 C3.91827092 4.9632594 3.91827092 4.9632594 1 6 C-0.0625 4.125 -0.0625 4.125 -1 2 C-0.67 1.34 -0.34 0.68 0 0 Z " fill="#365874" transform="translate(299,112)"/>
<path d="M0 0 C0.99 0.33 1.98 0.66 3 1 C2.42655063 3.86724686 2.1385485 4.8614515 0 7 C-2.625 7.125 -2.625 7.125 -5 7 C-4.34 6.01 -3.68 5.02 -3 4 C-2.34 4 -1.68 4 -1 4 C-0.67 2.68 -0.34 1.36 0 0 Z " fill="#1B3847" transform="translate(369,321)"/>
<path d="M0 0 C2.64 0 5.28 0 8 0 C7.67 0.99 7.34 1.98 7 3 C2.545 3.495 2.545 3.495 -2 4 C-1.34 3.67 -0.68 3.34 0 3 C0 2.01 0 1.02 0 0 Z " fill="#355367" transform="translate(237,315)"/>
<path d="M0 0 C0 0.66 0 1.32 0 2 C-0.99 2 -1.98 2 -3 2 C-3 2.66 -3 3.32 -3 4 C-5.97 3.505 -5.97 3.505 -9 3 C-9 2.01 -9 1.02 -9 0 C-5.62182575 -0.84454356 -3.32534757 -1.10844919 0 0 Z " fill="#2B4C60" transform="translate(368,294)"/>
<path d="M0 0 C1.41377341 2.63904371 2.37240135 5.07120629 3 8 C1.35 8.33 -0.3 8.66 -2 9 C-3 6 -3 6 -1.5625 2.8125 C-1.046875 1.884375 -0.53125 0.95625 0 0 Z " fill="#072451" transform="translate(311,284)"/>
<path d="M0 0 C1.32 0.99 2.64 1.98 4 3 C3.75 4.875 3.75 4.875 3 7 C0.9375 8.25 0.9375 8.25 -1 9 C-1 5.88772805 -0.54372951 3.05847848 0 0 Z " fill="#05254C" transform="translate(227,164)"/>
<path d="M0 0 C0 1.98 0 3.96 0 6 C-1.65 6 -3.3 6 -5 6 C-5 5.01 -5 4.02 -5 3 C-5.99 2.34 -6.98 1.68 -8 1 C-1.125 0 -1.125 0 0 0 Z " fill="#05223C" transform="translate(411,296)"/>
<path d="M0 0 C3.96 0 7.92 0 12 0 C12 0.33 12 0.66 12 1 C7.545 1.495 7.545 1.495 3 2 C3 2.99 3 3.98 3 5 C3.66 5.66 4.32 6.32 5 7 C3.35 6.67 1.7 6.34 0 6 C0 4.02 0 2.04 0 0 Z " fill="#7892A5" transform="translate(253,275)"/>
<path d="M0 0 C0.99 0.33 1.98 0.66 3 1 C1.14285714 8.57142857 1.14285714 8.57142857 -2 11 C-1.125 3.375 -1.125 3.375 0 0 Z " fill="#3C5D75" transform="translate(165,275)"/>
<path d="M0 0 C2.64 0 5.28 0 8 0 C11.07692308 5.41538462 11.07692308 5.41538462 10.6875 8.375 C10.460625 8.91125 10.23375 9.4475 10 10 C8.10786631 7.61426621 6.97608217 5.92824652 6 3 C6.33 2.34 6.66 1.68 7 1 C4.69 1 2.38 1 0 1 C0 0.67 0 0.34 0 0 Z " fill="#4A7589" transform="translate(146,275)"/>
<path d="M0 0 C0 4.24645065 -1.81750806 6.38524772 -4 10 C-4.99 9.67 -5.98 9.34 -7 9 C-7.33 8.34 -7.66 7.68 -8 7 C-7.01 5.68 -6.02 4.36 -5 3 C-4.67 3.66 -4.34 4.32 -4 5 C-2.68 3.35 -1.36 1.7 0 0 Z " fill="#2F4C71" transform="translate(289,228)"/>
<path d="M0 0 C3 1 3 1 4.75 3.25 C6.18671298 6.41076857 6.02214896 7.74770785 5 11 C0 4.63636364 0 4.63636364 0 0 Z " fill="#435C71" transform="translate(271,163)"/>
<path d="M0 0 C0.66 0.99 1.32 1.98 2 3 C1.505 3.391875 1.01 3.78375 0.5 4.1875 C-1.45593143 6.55091715 -1.24207973 8.01435003 -1 11 C-2.5625 9.8125 -2.5625 9.8125 -4 8 C-3.84946418 4.98928361 -3.41319987 3.47931185 -1.4375 1.1875 C-0.963125 0.795625 -0.48875 0.40375 0 0 Z " fill="#2E4F66" transform="translate(272,152)"/>
<path d="M0 0 C0.12375 0.639375 0.2475 1.27875 0.375 1.9375 C0.684375 2.9584375 0.684375 2.9584375 1 4 C1.66 4.33 2.32 4.66 3 5 C1.02 7.31 -0.96 9.62 -3 12 C-4 10 -4 10 -3.22265625 7.6171875 C-2.83980469 6.71226562 -2.45695313 5.80734375 -2.0625 4.875 C-1.68222656 3.96492187 -1.30195313 3.05484375 -0.91015625 2.1171875 C-0.60980469 1.41851562 -0.30945313 0.71984375 0 0 Z " fill="#496686" transform="translate(209,149)"/>
<path d="M0 0 C0.66 0 1.32 0 2 0 C2 0.99 2 1.98 2 3 C4.97 3 7.94 3 11 3 C11 3.66 11 4.32 11 5 C7.04 5 3.08 5 -1 5 C-0.67 3.35 -0.34 1.7 0 0 Z " fill="#77889D" transform="translate(318,142)"/>
<path d="M0 0 C0.99 0.33 1.98 0.66 3 1 C5.33299825 1.03954234 7.66708189 1.04401732 10 1 C10 1.33 10 1.66 10 2 C8.08404518 2.33740085 6.16720278 2.66976412 4.25 3 C2.64898437 3.2784375 2.64898437 3.2784375 1.015625 3.5625 C-2 4 -2 4 -6 4 C-6 3.34 -6 2.68 -6 2 C-4.02 2 -2.04 2 0 2 C0 1.34 0 0.68 0 0 Z " fill="#637E9D" transform="translate(251,136)"/>
<path d="M0 0 C1.98 0.66 3.96 1.32 6 2 C6.66 1.34 7.32 0.68 8 0 C11 3.75 11 3.75 11 6 C6.48986609 5.46939601 3.61621781 3.69113883 0 1 C0 0.67 0 0.34 0 0 Z " fill="#4C6C8B" transform="translate(232,238)"/>
<path d="M0 0 C1 2 1 2 0.3125 4.5 C-1.17797624 7.33900236 -2.06334546 7.89875455 -5 9 C-5.99 9.495 -5.99 9.495 -7 10 C-5.6062718 5.56541027 -3.39417765 3.12621626 0 0 Z " fill="#395770" transform="translate(326,160)"/>
<path d="M0 0 C1.32 0.66 2.64 1.32 4 2 C-1.94 2.495 -1.94 2.495 -8 3 C-8.33 2.34 -8.66 1.68 -9 1 C-5.97562661 -0.5121867 -3.33758466 -0.17263369 0 0 Z " fill="#203F60" transform="translate(307,136)"/>
<path d="M0 0 C0.78375 0.165 1.5675 0.33 2.375 0.5 C5.09522679 1.23945377 5.09522679 1.23945377 8 0 C7.34 1.65 6.68 3.3 6 5 C4.35 5 2.7 5 1 5 C0.34 3.68 -0.32 2.36 -1 1 C-0.67 0.67 -0.34 0.34 0 0 Z " fill="#203F4E" transform="translate(336,329)"/>
<path d="M0 0 C0.433125 0.66 0.86625 1.32 1.3125 2 C2.1478125 2.99 2.1478125 2.99 3 4 C3.99 4 4.98 4 6 4 C6 4.99 6 5.98 6 7 C6.66 7.66 7.32 8.32 8 9 C5.36 9 2.72 9 0 9 C0.99 8.34 1.98 7.68 3 7 C2.01 6.34 1.02 5.68 0 5 C-0.1875 2.375 -0.1875 2.375 0 0 Z " fill="#698E9C" transform="translate(390,325)"/>
<path d="M0 0 C0.33 0 0.66 0 1 0 C1.12375 0.969375 1.2475 1.93875 1.375 2.9375 C1.684375 4.4534375 1.684375 4.4534375 2 6 C2.66 6.33 3.32 6.66 4 7 C3.67 8.65 3.34 10.3 3 12 C2.01 12 1.02 12 0 12 C0.33 11.34 0.66 10.68 1 10 C0.34 9.67 -0.32 9.34 -1 9 C-0.67 6.03 -0.34 3.06 0 0 Z " fill="#5C7A93" transform="translate(342,320)"/>
<path d="M0 0 C0.66 0 1.32 0 2 0 C2 1.65 2 3.3 2 5 C-1.05269846 6.52634923 -3.75845689 5.83794444 -7.125 5.5625 C-8.40632812 5.46066406 -9.68765625 5.35882813 -11.0078125 5.25390625 C-11.99523437 5.17011719 -12.98265625 5.08632813 -14 5 C-14 4.67 -14 4.34 -14 4 C-9.38 4 -4.76 4 0 4 C0 2.68 0 1.36 0 0 Z " fill="#527189" transform="translate(241,298)"/>
<path d="M0 0 C2.63049736 2.3799738 4.47108462 4.7892777 6 8 C5.6875 10.8125 5.6875 10.8125 5 13 C4.67 13 4.34 13 4 13 C3.67 11.02 3.34 9.04 3 7 C2.01 6.67 1.02 6.34 0 6 C0 4.02 0 2.04 0 0 Z " fill="#567389" transform="translate(267,230)"/>
<path d="M0 0 C1.65 0.33 3.3 0.66 5 1 C5 1.66 5 2.32 5 3 C2.34771188 4.07525194 -0.28368454 5.09456151 -3 6 C-2.67 4.68 -2.34 3.36 -2 2 C-1.34 2 -0.68 2 0 2 C0 1.34 0 0.68 0 0 Z " fill="#04265A" transform="translate(327,164)"/>
<path d="M0 0 C1.32 0 2.64 0 4 0 C2.68775452 3.93673644 1.08089673 6.22719294 -2 9 C-1.34 7.35 -0.68 5.7 0 4 C-0.66 3.67 -1.32 3.34 -2 3 C-1.34 2.01 -0.68 1.02 0 0 Z " fill="#446F85" transform="translate(339,153)"/>
<path d="M0 0 C2.64 0 5.28 0 8 0 C8.33 0.99 8.66 1.98 9 3 C6.03 3 3.06 3 0 3 C0 2.01 0 1.02 0 0 Z " fill="#183350" transform="translate(302,142)"/>
<path d="M0 0 C0.99 1.32 1.98 2.64 3 4 C1 6 1 6 -2.125 6.125 C-3.548125 6.063125 -3.548125 6.063125 -5 6 C-4.75 4.125 -4.75 4.125 -4 2 C-1.9375 0.75 -1.9375 0.75 0 0 Z " fill="#02204A" transform="translate(236,120)"/>
<path d="M0 0 C0.66 0.33 1.32 0.66 2 1 C1.67 2.32 1.34 3.64 1 5 C-0.65 5 -2.3 5 -4 5 C-4.66 6.32 -5.32 7.64 -6 9 C-5.625 6.5625 -5.625 6.5625 -5 4 C-4.34 3.67 -3.68 3.34 -3 3 C-3 2.34 -3 1.68 -3 1 C-2.01 0.67 -1.02 0.34 0 0 Z " fill="#6A8995" transform="translate(273,314)"/>
<path d="M0 0 C5.75 1.875 5.75 1.875 8 3 C8 5.97 8 8.94 8 12 C7.67 12 7.34 12 7 12 C7 9.36 7 6.72 7 4 C6.071875 4.309375 6.071875 4.309375 5.125 4.625 C4.42375 4.74875 3.7225 4.8725 3 5 C1 3 1 3 0 0 Z " fill="#506F88" transform="translate(373,287)"/>
<path d="M0 0 C1.65 0 3.3 0 5 0 C5.33 1.98 5.66 3.96 6 6 C5.01 6.33 4.02 6.66 3 7 C3 5.68 3 4.36 3 3 C2.01 3 1.02 3 0 3 C0 2.01 0 1.02 0 0 Z " fill="#04234F" transform="translate(186,284)"/>
<path d="M0 0 C0.66 0.66 1.32 1.32 2 2 C1.01 3.485 1.01 3.485 0 5 C-0.66 5 -1.32 5 -2 5 C-2.0825 5.598125 -2.165 6.19625 -2.25 6.8125 C-3.20455872 9.5966296 -4.57132271 10.43311142 -7 12 C-6.42341728 8.10806661 -4.5000475 5.95460159 -2 3 C-1.34 2.01 -0.68 1.02 0 0 Z " fill="#7B9BAF" transform="translate(308,202)"/>
<path d="M0 0 C0 2 0 4 0 6 C-1.65 6 -3.3 6 -5 6 C-4.67 7.65 -4.34 9.3 -4 11 C-4.66 10.67 -5.32 10.34 -6 10 C-6 8.35 -6 6.7 -6 5 C-5.34 5 -4.68 5 -4 5 C-4 4.34 -4 3.68 -4 3 C-2 1.375 -2 1.375 0 0 Z " fill="#638194" transform="translate(254,149)"/>
<path d="M0 0 C2.475 0.495 2.475 0.495 5 1 C5 1.99 5 2.98 5 4 C6.32 4.33 7.64 4.66 9 5 C4.545 5.495 4.545 5.495 0 6 C0.99 5.34 1.98 4.68 3 4 C2.01 3.34 1.02 2.68 0 2 C0 1.34 0 0.68 0 0 Z " fill="#3F5879" transform="translate(247,141)"/>
<path d="M0 0 C1.65 0 3.3 0 5 0 C5.33 1.98 5.66 3.96 6 6 C5.01 5.67 4.02 5.34 3 5 C3 4.34 3 3.68 3 3 C2.01 2.67 1.02 2.34 0 2 C0 1.34 0 0.68 0 0 Z " fill="#244150" transform="translate(393,315)"/>
<path d="M0 0 C1.98 0 3.96 0 6 0 C6 1.65 6 3.3 6 5 C3.69 5 1.38 5 -1 5 C0.32 3.68 1.64 2.36 3 1 C2.01 0.67 1.02 0.34 0 0 Z " fill="#032540" transform="translate(404,286)"/>
<path d="M0 0 C2.5625 1.5625 2.5625 1.5625 5 4 C4.8125 7.75 4.8125 7.75 4 11 C3 8 3 8 3 6 C2.01 5.67 1.02 5.34 0 5 C0 3.35 0 1.7 0 0 Z " fill="#7190A6" transform="translate(291,150)"/>
<path d="M0 0 C0.33 1.32 0.66 2.64 1 4 C-0.65 4 -2.3 4 -4 4 C-4 3.01 -4 2.02 -4 1 C-4.99 1.33 -5.98 1.66 -7 2 C-7.33 1.34 -7.66 0.68 -8 0 C-4.94736336 -0.98120464 -3.05263664 -0.98120464 0 0 Z " fill="#012151" transform="translate(298,135)"/>
<path d="M0 0 C2.31 0 4.62 0 7 0 C7 2.31 7 4.62 7 7 C6.01 6.67 5.02 6.34 4 6 C4 4.35 4 2.7 4 1 C2.68 0.67 1.36 0.34 0 0 Z " fill="#0C2A38" transform="translate(311,316)"/>
<path d="M0 0 C1.65 0 3.3 0 5 0 C5 0.66 5 1.32 5 2 C3.35 2 1.7 2 0 2 C0 1.34 0 0.68 0 0 Z M1 3 C-2 5 -2 5 -6 5 C-6 4.34 -6 3.68 -6 3 C-2.86650268 1.95550089 -2.01031744 2.06576355 1 3 Z " fill="#04214B" transform="translate(299,243)"/>
<path d="M0 0 C1.32 0.66 2.64 1.32 4 2 C1.03 4.475 1.03 4.475 -2 7 C-2.66 6.67 -3.32 6.34 -4 6 C-3.67 5.01 -3.34 4.02 -3 3 C-2.01 2.67 -1.02 2.34 0 2 C0 1.34 0 0.68 0 0 Z " fill="#375276" transform="translate(317,234)"/>
<path d="M0 0 C0.99 0 1.98 0 3 0 C2.29445932 3.66881155 0.72264494 6.70450534 -1 10 C-1.33 10 -1.66 10 -2 10 C-2.22036864 6.14354879 -1.60355101 3.50776784 0 0 Z " fill="#11304E" transform="translate(287,166)"/>
<path d="M0 0 C1.65 0 3.3 0 5 0 C4.19152271 1.16945792 3.37810888 2.33550461 2.5625 3.5 C2.11003906 4.1496875 1.65757812 4.799375 1.19140625 5.46875 C0.79824219 5.9740625 0.40507812 6.479375 0 7 C-0.33 7 -0.66 7 -1 7 C-0.67 4.69 -0.34 2.38 0 0 Z " fill="#355271" transform="translate(329,167)"/>
<path d="M0 0 C0.66 0 1.32 0 2 0 C2 2.64 2 5.28 2 8 C1.01 7.67 0.02 7.34 -1 7 C-1.04254356 5.00045254 -1.04080783 2.99958364 -1 1 C-0.67 0.67 -0.34 0.34 0 0 Z " fill="#102937" transform="translate(168,324)"/>
<path d="M0 0 C0.33 0.66 0.66 1.32 1 2 C1.99 2 2.98 2 4 2 C4 2.66 4 3.32 4 4 C1.36 4 -1.28 4 -4 4 C-4 3.01 -4 2.02 -4 1 C-2.68 0.67 -1.36 0.34 0 0 Z " fill="#042046" transform="translate(298,298)"/>
<path d="M0 0 C1.46726798 3.81489674 0.43336419 6.29011622 -1 10 C-1.99 9.67 -2.98 9.34 -4 9 C-2.80100302 5.9168649 -1.52299523 2.93720508 0 0 Z " fill="#03214A" transform="translate(344,192)"/>
<path d="M0 0 C1 2 1 2 0.375 4.5625 C-1 7 -1 7 -3.625 7.8125 C-4.40875 7.874375 -5.1925 7.93625 -6 8 C-5.67 7.01 -5.34 6.02 -5 5 C-4.34 5 -3.68 5 -3 5 C-2.5359375 4.0409375 -2.5359375 4.0409375 -2.0625 3.0625 C-1 1 -1 1 0 0 Z " fill="#012349" transform="translate(279,146)"/>
<path d="M0 0 C0.99 0 1.98 0 3 0 C3 1.32 3 2.64 3 4 C4.32 4.33 5.64 4.66 7 5 C3.71023192 6.09658936 2.28696233 5.79953138 -1 5 C-0.34 4.67 0.32 4.34 1 4 C0.67 2.68 0.34 1.36 0 0 Z " fill="#173563" transform="translate(325,138)"/>
<path d="M0 0 C0.8971875 0.309375 0.8971875 0.309375 1.8125 0.625 C1.8125 1.285 1.8125 1.945 1.8125 2.625 C-1.40201269 4.23225635 -4.62362536 3.68248185 -8.1875 3.625 C-2.1875 -0.375 -2.1875 -0.375 0 0 Z " fill="#021E49" transform="translate(287.1875,126.375)"/>
<path d="M0 0 C0.33 0 0.66 0 1 0 C1.33 2.64 1.66 5.28 2 8 C0.68 8.33 -0.64 8.66 -2 9 C-2.25 3.375 -2.25 3.375 0 0 Z " fill="#2D4C5B" transform="translate(206,325)"/>
<path d="M0 0 C0.33 0 0.66 0 1 0 C1.36923077 6.52307692 1.36923077 6.52307692 -0.5 8.9375 C-0.995 9.288125 -1.49 9.63875 -2 10 C-2.99 9.01 -3.98 8.02 -5 7 C-4.34 6.34 -3.68 5.68 -3 5 C-2.01 5.33 -1.02 5.66 0 6 C0 4.02 0 2.04 0 0 Z " fill="#547588" transform="translate(318,317)"/>
<path d="M0 0 C0.99 0 1.98 0 3 0 C2.67 2.97 2.34 5.94 2 9 C1.34 9 0.68 9 0 9 C0 6.03 0 3.06 0 0 Z " fill="#183944" transform="translate(216,316)"/>
<path d="M0 0 C1.46726798 3.81489674 0.43336419 6.29011622 -1 10 C-1.33 9.34 -1.66 8.68 -2 8 C-2.66 8 -3.32 8 -4 8 C-4 7.01 -4 6.02 -4 5 C-3.01 4.34 -2.02 3.68 -1 3 C-0.67 2.01 -0.34 1.02 0 0 Z " fill="#314D6D" transform="translate(304,292)"/>
<path d="M0 0 C0.33 1.32 0.66 2.64 1 4 C1.66 4 2.32 4 3 4 C3.33 6.31 3.66 8.62 4 11 C2.29159719 9.36587557 1.06546953 8.13093906 0 6 C-0.039992 4.00039988 -0.04346799 1.99952758 0 0 Z " fill="#335572" transform="translate(185,288)"/>
<path d="M0 0 C2.21736634 1.10868317 4.03617993 2.49440461 6 4 C3.03 4.66 0.06 5.32 -3 6 C-2.67 5.01 -2.34 4.02 -2 3 C-1.34 3 -0.68 3 0 3 C0 2.01 0 1.02 0 0 Z " fill="#46628A" transform="translate(367,282)"/>
<path d="M0 0 C1.32 0.99 2.64 1.98 4 3 C3.01 4.485 3.01 4.485 2 6 C1.34 6 0.68 6 0 6 C-0.33 6.99 -0.66 7.98 -1 9 C-1.33 7.68 -1.66 6.36 -2 5 C-1.34 5 -0.68 5 0 5 C0 3.35 0 1.7 0 0 Z " fill="#2D456F" transform="translate(314,187)"/>
<path d="M0 0 C0 0.33 0 0.66 0 1 C-3.63 1.33 -7.26 1.66 -11 2 C-11 1.34 -11 0.68 -11 0 C-7.01803543 -1.05404945 -4.01804691 -0.84098656 0 0 Z " fill="#0F2E4E" transform="translate(321,135)"/>
<path d="M0 0 C2.97 0.495 2.97 0.495 6 1 C6 2.32 6 3.64 6 5 C5.01 5.33 4.02 5.66 3 6 C2.01 5.34 1.02 4.68 0 4 C0.66 3.67 1.32 3.34 2 3 C1.34 2.67 0.68 2.34 0 2 C0 1.34 0 0.68 0 0 Z " fill="#698999" transform="translate(367,329)"/>
<path d="M0 0 C0.66 0 1.32 0 2 0 C2 2.31 2 4.62 2 7 C0.68 6.67 -0.64 6.34 -2 6 C-1.34 4.02 -0.68 2.04 0 0 Z " fill="#183549" transform="translate(397,326)"/>
<path d="M0 0 C0.33 0.66 0.66 1.32 1 2 C2.32 2 3.64 2 5 2 C5.33 3.32 5.66 4.64 6 6 C4.68 5.67 3.36 5.34 2 5 C2 4.34 2 3.68 2 3 C0.68 3 -0.64 3 -2 3 C-2 2.34 -2 1.68 -2 1 C-1.34 0.67 -0.68 0.34 0 0 Z " fill="#102D42" transform="translate(339,315)"/>
<path d="M0 0 C0.33 0.66 0.66 1.32 1 2 C3.12576782 2.46651207 3.12576782 2.46651207 5.5625 2.625 C6.38878906 2.69976562 7.21507812 2.77453125 8.06640625 2.8515625 C8.70449219 2.90054687 9.34257812 2.94953125 10 3 C9.67 3.66 9.34 4.32 9 5 C7.54077307 4.88590407 6.08259402 4.75834456 4.625 4.625 C3.40683594 4.52058594 3.40683594 4.52058594 2.1640625 4.4140625 C0 4 0 4 -2 2 C-1.34 2 -0.68 2 0 2 C0 1.34 0 0.68 0 0 Z " fill="#1E4868" transform="translate(193,292)"/>
<path d="M0 0 C0.33 0 0.66 0 1 0 C0.67 2.97 0.34 5.94 0 9 C-0.99 8.67 -1.98 8.34 -3 8 C-3 6.35 -3 4.7 -3 3 C-2.34 3 -1.68 3 -1 3 C-0.67 2.01 -0.34 1.02 0 0 Z " fill="#486D8C" transform="translate(325,275)"/>
<path d="M0 0 C-0.33 0.66 -0.66 1.32 -1 2 C-4.375 2.75 -4.375 2.75 -8 3 C-8.99 2.34 -9.98 1.68 -11 1 C-7.27569643 0.30710631 -3.78916254 -0.11144596 0 0 Z " fill="#46697E" transform="translate(319,140)"/>
<path d="M0 0 C-3.20336822 2.83374881 -5.78087253 3.5205537 -10 4 C-9.67 3.01 -9.34 2.02 -9 1 C-6.03421164 -0.16513114 -3.15436364 -0.08762121 0 0 Z " fill="#032143" transform="translate(261,138)"/>
<path d="M0 0 C0.66 0 1.32 0 2 0 C2.33 2.31 2.66 4.62 3 7 C1.68 6.34 0.36 5.68 -1 5 C-1.33 5.66 -1.66 6.32 -2 7 C-1.42415568 4.61435923 -0.77772405 2.33317216 0 0 Z " fill="#557386" transform="translate(370,316)"/>
<path d="M0 0 C1.32 0.66 2.64 1.32 4 2 C-0.32734391 4.22923777 -3.28400182 3.92470553 -8 3 C-8 2.67 -8 2.34 -8 2 C-6.865625 1.855625 -5.73125 1.71125 -4.5625 1.5625 C-1.19222799 1.38828522 -1.19222799 1.38828522 0 0 Z " fill="#345F78" transform="translate(202,300)"/>
<path d="M0 0 C0.66 0.33 1.32 0.66 2 1 C1.67 2.98 1.34 4.96 1 7 C-0.32 7.33 -1.64 7.66 -3 8 C-2.01 5.36 -1.02 2.72 0 0 Z " fill="#274473" transform="translate(401,292)"/>
<path d="M0 0 C2.32472205 2.85306797 3.7508258 5.54074837 5 9 C4.01 9 3.02 9 2 9 C1.34 6.03 0.68 3.06 0 0 Z " fill="#416083" transform="translate(158,288)"/>
<path d="M0 0 C1.32 0 2.64 0 4 0 C4.33 1.65 4.66 3.3 5 5 C3.35 4.67 1.7 4.34 0 4 C0 2.68 0 1.36 0 0 Z " fill="#05204B" transform="translate(361,284)"/>
<path d="M0 0 C0.33 0.99 0.66 1.98 1 3 C-1.31 3 -3.62 3 -6 3 C-6.33 2.34 -6.66 1.68 -7 1 C-4.53721199 -0.231394 -2.7204945 -0.07159196 0 0 Z " fill="#0B2655" transform="translate(203,277)"/>
<path d="M0 0 C0.33 0 0.66 0 1 0 C1.25 2.8125 1.25 2.8125 1 6 C-1 7.875 -1 7.875 -3 9 C-3.66 8.67 -4.32 8.34 -5 8 C-4.19185349 6.66402348 -3.37836819 5.331275 -2.5625 4 C-2.11003906 3.2575 -1.65757812 2.515 -1.19140625 1.75 C-0.79824219 1.1725 -0.40507812 0.595 0 0 Z " fill="#4B7990" transform="translate(280,236)"/>
<path d="M0 0 C0.99 0.33 1.98 0.66 3 1 C2.19152271 2.16945792 1.37810888 3.33550461 0.5625 4.5 C0.11003906 5.1496875 -0.34242188 5.799375 -0.80859375 6.46875 C-1.20175781 6.9740625 -1.59492188 7.479375 -2 8 C-2.33 8 -2.66 8 -3 8 C-3 6.35 -3 4.7 -3 3 C-2.01 3 -1.02 3 0 3 C0 2.01 0 1.02 0 0 Z " fill="#466286" transform="translate(264,151)"/>
<path d="M0 0 C2.64 0 5.28 0 8 0 C6.35 1.65 4.7 3.3 3 5 C2.34 4.34 1.68 3.68 1 3 C1.99 3 2.98 3 4 3 C4 2.34 4 1.68 4 1 C2.68 0.67 1.36 0.34 0 0 Z " fill="#3D627B" transform="translate(275,134)"/>
<path d="M0 0 C1.65 0.33 3.3 0.66 5 1 C4.67 1.99 4.34 2.98 4 4 C1.36 4 -1.28 4 -4 4 C-4 3.67 -4 3.34 -4 3 C-2.02 2.67 -0.04 2.34 2 2 C1.34 1.34 0.68 0.68 0 0 Z " fill="#6E8C96" transform="translate(270,330)"/>
<path d="M0 0 C0.99 0 1.98 0 3 0 C3 2.64 3 5.28 3 8 C0.4345406 5.4345406 0.45953913 3.52313332 0 0 Z " fill="#496A84" transform="translate(211,285)"/>
<path d="M0 0 C0.28875 0.61875 0.5775 1.2375 0.875 1.875 C1.93720042 4.13325765 1.93720042 4.13325765 4 6 C3.01 6 2.02 6 1 6 C0.67 6.99 0.34 7.98 0 9 C-1.125 3.375 -1.125 3.375 0 0 Z " fill="#406784" transform="translate(360,278)"/>
<path d="M0 0 C2.64 0 5.28 0 8 0 C8.33 0.66 8.66 1.32 9 2 C4.545 2.495 4.545 2.495 0 3 C0 2.01 0 1.02 0 0 Z " fill="#4F6F88" transform="translate(194,281)"/>
<path d="M0 0 C1.9375 0.625 1.9375 0.625 4 2 C4.75 5.125 4.75 5.125 5 8 C4.34 7.34 3.68 6.68 3 6 C3 5.01 3 4.02 3 3 C1.68 2.67 0.36 2.34 -1 2 C-0.67 1.34 -0.34 0.68 0 0 Z " fill="#6B8D9D" transform="translate(376,276)"/>
<path d="M0 0 C-1.25 1.5625 -1.25 1.5625 -3 3 C-5.1875 2.6875 -5.1875 2.6875 -7 2 C-7 1.34 -7 0.68 -7 0 C-4.3333581 -1.33332095 -2.83319697 -0.67102033 0 0 Z " fill="#425F7B" transform="translate(313,241)"/>
<path d="M0 0 C0.66 0 1.32 0 2 0 C2.75 1.75 2.75 1.75 3 4 C1.0625 6.25 1.0625 6.25 -1 8 C-1.08226668 4.95613276 -0.97608217 2.92824652 0 0 Z " fill="#304F78" transform="translate(334,215)"/>
<path d="M0 0 C2.79872437 2.52788007 4.45773019 4.20411134 5 8 C4.34 7.67 3.68 7.34 3 7 C3 6.34 3 5.68 3 5 C2.34 5 1.68 5 1 5 C0.67 5.66 0.34 6.32 0 7 C0 4.69 0 2.38 0 0 Z " fill="#496888" transform="translate(235,175)"/>
<path d="M0 0 C0.66 0.66 1.32 1.32 2 2 C1.67 2.99 1.34 3.98 1 5 C0.34 4.67 -0.32 4.34 -1 4 C-1.33 4.66 -1.66 5.32 -2 6 C-2.33 4.35 -2.66 2.7 -3 1 C-2.01 0.67 -1.02 0.34 0 0 Z " fill="#395D76" transform="translate(333,144)"/>
<path d="M0 0 C0.66 0 1.32 0 2 0 C1.39816251 2.02045442 0.72693904 4.02111039 0 6 C-0.99 6.495 -0.99 6.495 -2 7 C-2.33 5.68 -2.66 4.36 -3 3 C-2.34 3 -1.68 3 -1 3 C-0.67 2.01 -0.34 1.02 0 0 Z " fill="#042148" transform="translate(219,136)"/>
</svg>
